<?xml version="1.0" encoding="utf-8"?>
<!-- Generator: Adobe Illustrator 27.5.0, SVG Export Plug-In . SVG Version: 6.00 Build 0)  -->
<svg version="1.1" xmlns="http://www.w3.org/2000/svg" xmlns:xlink="http://www.w3.org/1999/xlink" x="0px" y="0px"
	 viewBox="0 0 750 500" style="enable-background:new 0 0 750 500;" xml:space="preserve">
<g id="BACKGROUND">
	<g>
		<rect style="fill:#162C44;" width="750" height="500.485"/>
		<rect x="558.221" style="fill:#10273A;" width="191.779" height="500"/>
		<rect y="400.61" style="fill:#0C1D2D;" width="750" height="99.875"/>
	</g>
</g>
<g id="OBJECTS">
	<g>
		<g>
			<path style="fill:#60A7AD;" d="M322.55,375.72c-3.69-2.67-9.93-7.8-16.31-12.53c22.3-7.54,27.96-14.33,49-10.33
				c13.52,2.56,37.68,2.51,58.15,1.86c-42.03,11.76-76.03,21.51-76.03,21.51l0.67,3.19C334.83,380.02,328.81,380.24,322.55,375.72z"
				/>
			<path style="fill:#6BBBC2;" d="M750,348.26v70.36l-41.36,3.71l-118,10.17l-210.9,16.66c-15.53,0.22-27.72-0.5-33.19-3.23
				c-14.08-7.04-100.44-24.44-128.57-29.78l0.4-1.11c0,0-28.59-21.4-40.85-34.68c-12.25-13.27-15.32-18.38,20.43-20.42
				c35.74-2.05,44.93,18.28,86.81,9.14c0,0-9.2,16.08,0.51,24.76c9.7,8.68,23.49,10.73,27.57,17.37c4.09,6.63,12,9.19,16.34,6.12
				c3.42-2.41,12.22-4.19,15.81-4.84l0.53,2.55l125.97-22.98c0,0,103.82-9.71,130.37-21.96c11.83-5.46,19-14.36,23.3-22.56h13.89
				l31.75-0.41c0,0,8.97-7.52,2.5-15.57c21.17,3.84,50.02,9.46,76.69,15.98C750.98,347.78,749.03,348.02,750,348.26z"/>
			<path style="fill:#6BBBC2;" d="M675.149,150.957c-32.585,5.088-48.894,26.253-47.968,45.998
				c2.674,5.432,5.12,11.763,7.117,19.187c10.041,37.326,8.325,90.88,5.542,110.261l2.15-0.219c0,0,57.211,8.749,108.01,21.356
				v-196.9C750,150.64,710.733,145.401,675.149,150.957z"/>
			<path style="fill:#1B7D96;" d="M639.058,167.865c0,0,65.003-44.28,103.581,17.752c25.999,41.806-19.384,38.707-10.819,91.614
				c7.83,48.366-16.422,61.357-16.422,61.357L750,346.372V149.015C750,149.015,665.702,136.369,639.058,167.865z"/>
			<path style="fill:#244963;" d="M622.446,193.667c0,0,33.043-5.542,44.277,26.747c11.234,32.288,2.043,31.267,12.255,64.969
				c10.213,33.702,3.064,68.426-11.234,74.553c-14.298,6.128-11.675,15.319-56.391,20.426
				c-44.716,5.106-211.184,34.674-211.184,34.674S308,431.08,295.234,418.619c-12.766-12.461,94.723-24.981,94.723-24.981
				l232.489-60.446V193.667z"/>
			<path style="fill:#7AD1D3;" d="M440.61,347.13c-9.27,2.57-18.42,5.12-27.22,7.59c-20.47,0.65-44.63,0.7-58.15-1.86
				c-21.04-4-26.7,2.79-49,10.33c-9.51-7.05-19.33-13.2-21.47-8.92c-3.58,7.15,0,14.81,0,14.81c-41.88,9.14-51.07-11.19-86.81-9.14
				c-35.75,2.04-32.68,7.15-20.43,20.42c12.26,13.28,40.85,34.68,40.85,34.68l-0.4,1.11c-2.47-0.47-4.5-0.84-5.98-1.11
				c-18.38-3.32-45.96-22.73-66.64-34.98c-20.68-12.26-45.96-4.6-47.49-15.41c-0.3-2.13,0.02-4.18,1.36-6.09h0.01
				c21.27-13.88,106.89-7.05,125.27-6.89c18.38,0.17,56.32-1.95,56.32-1.95l158.41-5.85C439.75,345.09,440.2,346.18,440.61,347.13z"
				/>
			<path style="fill:#2C5A7E;" d="M346.55,445.93c-4.7-2.35-17.47-5.86-33.43-9.68l9.43,64.23h57.19v-51.32
				C364.21,449.38,352.02,448.66,346.55,445.93z M161.97,415.04c-16.82-26.18-47.11-42.77-48.05-43.28c0,0-0.01,0-0.01-0.01
				c-0.01,0-0.01,0-0.01,0c-8.82-0.94-15.28-1.8-16.03-7.1c0,0-8.42,10.68-6.13,21.09c2.3,10.4,6.54,4.58,3.58,20.66
				c-2.96,16.09-1.418,17.621-1.788,29.111c-0.3,9.43,1.293,11.325,1.793,12.985c0.13,0.36-0.389,5.654,6.249,7.568
				c1.281,0.369,24.816,21.736,65.375,34.356c-0.01-0.01-0.02-0.01-0.02-0.01S179.06,441.64,161.97,415.04z"/>
			<path style="fill:#FFFFFF;" d="M439.24,343.87l-158.41,5.85c0,0-37.94,2.12-56.32,1.95c-18.38-0.16-104-6.99-125.27,6.89
				c5.48-7.8,28.06-13.14,95.14-10.67c53.48,1.96,168.57-2.05,244.39-5.19C438.93,343.1,439.09,343.49,439.24,343.87z"/>
			<g>
				<path style="fill:#90D1CF;" d="M711.432,178.124c0,0-6.115,4.61-2.65,9.592C712.247,192.698,706.493,182.382,711.432,178.124z"
					/>
				<path style="fill:#90D1CF;" d="M713.288,246.429c0,0-6.115,4.61-2.65,9.592C714.103,261.002,708.35,250.686,713.288,246.429z"/>
				<path style="fill:#90D1CF;" d="M713.288,311.608c0,0-6.115,4.61-2.65,9.592C714.103,326.181,708.35,315.865,713.288,311.608z"/>
				<path style="fill:#90D1CF;" d="M678.311,216.47c0,0-6.115,4.61-2.65,9.592C679.126,231.044,673.372,220.728,678.311,216.47z"/>
				<path style="fill:#162C44;" d="M676.454,275.376c0,0-6.115,4.61-2.65,9.592C677.27,289.949,671.516,279.634,676.454,275.376z"/>
				<path style="fill:#90D1CF;" d="M655.301,174.979c0,0-6.115,4.61-2.65,9.592C656.117,189.553,650.363,179.237,655.301,174.979z"
					/>
				<path style="fill:#162C44;" d="M651.589,238.141c0,0-6.115,4.61-2.65,9.592C652.404,252.714,646.65,242.398,651.589,238.141z"/>
				<path style="fill:#162C44;" d="M651.589,304.921c0,0-6.115,4.61-2.65,9.592C652.404,319.494,646.65,309.178,651.589,304.921z"/>
			</g>
			<g>
				<path style="fill:#FFFFFF;" d="M135.958,358.321c0,0-4.607-4.224-8.457-1.144C123.65,360.257,131.783,354.957,135.958,358.321z"
					/>
				<path style="fill:#FFFFFF;" d="M261.059,408.167c0,0-4.607-4.224-8.457-1.144S256.884,404.804,261.059,408.167z"/>
				<path style="fill:#FFFFFF;" d="M394.586,353.993c0,0-4.607-4.224-8.457-1.144C382.279,355.93,390.411,350.63,394.586,353.993z"
					/>
				<path style="fill:#FFFFFF;" d="M342.762,368.594c0,0-4.607-4.224-8.457-1.144C330.455,370.53,338.587,365.231,342.762,368.594z"
					/>
				<path style="fill:#FFFFFF;" d="M261.204,360.589c0,0-4.607-4.224-8.457-1.144C248.897,362.525,257.029,357.226,261.204,360.589z
					"/>
				<path style="fill:#FFFFFF;" d="M222.967,381.324c0,0-4.607-4.224-8.457-1.144C210.66,383.26,218.792,377.961,222.967,381.324z"
					/>
			</g>
			<path style="fill:#202F51;" d="M322.55,500.48c0,0-84.76,0-106.43,0c-9.19-0.83-18.2-2.28-26.89-4.16
				c-7.61-1.65-14.97-3.62-21.99-5.8c-0.15-0.05-0.25-0.09-0.29-0.1c-0.01-0.01-0.02-0.01-0.02-0.01s12.13-48.77-4.96-75.37
				c-16.82-26.18-47.11-42.77-48.05-43.28c9.18,0.98,20.91,2.06,31.44,8.3c20.68,12.25,48.26,31.66,66.64,34.98
				c1.47,0.27,3.47,0.63,5.91,1.1c0.05,0.01,0.07,0.01,0.07,0.01c18.74,3.56,63.093,11.04,94.933,18.68L322.55,500.48z"/>
			<path style="fill:#17223E;" d="M750.185,341.445l-34.788-1.691c0,0,7.249,43.194-41.138,45.986
				c-48.387,2.792-361.347,49.09-361.347,49.09s-11.683,11.372,0,24.92c11.683,13.548,0,40.25,0,40.25l66.827,0.48l370.445-63.841
				V341.445z"/>
		</g>
		<g>
			<g>
				<g>
					<polygon style="fill:#2C5887;" points="345.302,237.394 99.313,249.974 101.09,72.853 331.556,81.491 345.302,82.346 					"/>
					<polygon style="fill:#1B7D96;" points="332.438,238.056 99.313,249.974 99.313,72.853 331.556,81.491 					"/>
					<path style="fill:#6BBBC2;" d="M331.556,196.29c-2.438-0.793-3.345-2.113,0-4.482v-8.97
						c-21.841-0.759-43.976-1.311-40.044-0.257c2.783,0.746,7.035,1.367,11.327,1.855c-12.313,0.036-34.63,0.45-45.81,5.58
						c-14.738,6.764-47.638,8.197-45.751,8.406c12.538,1.394,92.855-0.949,88.887,1.051c-3.968,2-30.75,6.001-22.071,5.557
						c6.2-0.317,36.282-2.766,53.462-4.701V196.29z"/>
					<path style="fill:#6BBBC2;" d="M331.584,86.32c0,0-55.273,0.309-54.475,2.306c0.798,1.996,27.15,2.795,31.542,4.392
						c4.392,1.597-71.868,5.59-79.454,6.787c-7.586,1.198,42.322,2.795,58.293,0c15.971-2.795,31.542-3.993,36.333-0.399
						c4.791,3.593-19.963,5.989-20.362,7.586c-0.399,1.597,28.261,3.758,28.261,3.758L331.584,86.32z"/>
					<polygon style="fill:#2C5887;" points="345.302,237.394 332.438,233.738 128.987,242.462 170.639,246.392 					"/>
					<g>
						
							<ellipse transform="matrix(0.2206 -0.9754 0.9754 0.2206 67.8758 339.2677)" style="fill:#FEED01;" cx="246.22" cy="127.163" rx="23.253" ry="23.253"/>
					</g>
					<path style="fill:#6BBBC2;" d="M177.126,138.276c5.354,0.184,7.61,2.195,12.965,2.379c-0.782-1.389-3.029-2.727-2.346-4.167
						c2.323-4.892,10.837-0.882,16.159,0.121c0.127-1.383,1.399-2.442,2.747-2.777c1.348-0.335,2.765-0.102,4.135,0.131
						c10.839,1.847,21.678,3.694,32.517,5.541c-9.586,4.23-22.019-0.113-30.416,6.155c16.076,8.685,35.844,6.375,53.213,12.047
						c-10.092,3.166-20.97,0.572-31.547,0.578c-8.324,0.005-16.65,1.642-24.931,0.802c-0.932-0.094-1.906-0.215-2.78,0.121
						c-0.77,0.296-1.369,0.913-2.092,1.309c-1.387,0.761-3.069,0.644-4.645,0.506c-18.496-1.618-36.991-3.236-55.487-4.854
						c4.731-1.623,9.462-3.247,14.193-4.87c2.628-0.902,5.337-1.85,7.387-3.725c1.848-1.69,3.003-3.991,4.571-5.944
						C172.337,139.676,174.64,137.97,177.126,138.276"/>
					<path style="fill:#90D1CF;" d="M99.314,63.213l45.305,2.694v196.394c-6.87,2.916-15.943,5.994-21.742,4.198l0.509-0.143
						c0,0,0-184.035,0-193.003c0-8.975-6.833-9.112-6.833-9.112L99.314,63.213z"/>
					<path style="fill:#90D1CF;" d="M170.639,67.45v194.474c0,0-4.195-1.803-8.803-2.909V66.93L170.639,67.45z"/>
					<path style="fill:#2C5887;" d="M123.386,73.354c0,8.969,0,193.003,0,193.003l-0.509,0.143c-0.15-0.039-0.3-0.091-0.442-0.143
						c-8.421-3.065-23.121,1.048-23.121,1.048V63.213l17.239,1.028C116.553,64.242,123.386,64.378,123.386,73.354z"/>
					<path style="fill:#2C5887;" d="M161.836,66.93v192.086c-3.506-0.84-7.245-1.276-9.56-0.202
						c-1.686,0.781-4.428,2.115-7.657,3.489V65.908L161.836,66.93z"/>
					<g>
						<g>
							<path style="fill:#23477C;" d="M346.626,80.175c-0.092,0-0.184-0.002-0.277-0.007L99.04,67.113
								c-2.478-0.131-4.365-1.982-4.214-4.135c0.15-2.152,2.263-3.798,4.759-3.661l247.309,13.055
								c2.478,0.131,4.364,1.982,4.214,4.134C350.964,78.578,348.984,80.175,346.626,80.175z"/>
						</g>
					</g>
				</g>
				<polygon style="fill:#FFFFFF;" points="168.716,70.791 168.197,260.97 170.639,261.925 170.639,70.791 				"/>
			</g>
		</g>
		<g>
			<path style="fill:#FEF5D6;" d="M626.869,96.646c-1.914-8.683-23.432-7.72-13.836,8.183
				C617.684,112.539,628.174,102.57,626.869,96.646z"/>
			<path style="fill:#FEF5D6;" d="M664.402,109.597c35.63-8.595,29.905-97.201-34.856-56.357
				C598.153,73.039,640.096,115.46,664.402,109.597z"/>
			<path style="fill:#FEF5D6;" d="M605.688,113.18c5.33-0.368,6.665-13.241-3.637-8.948
				C597.058,106.313,602.053,113.431,605.688,113.18z"/>
			<path style="fill:#10273A;" d="M675.462,85.309c3.75-2.289,6.357-5.116,3.662-7.745c-0.337-0.329-0.691-0.623-1.053-0.898
				c-0.167-2.072-1.553-3.629-3.55-4.771c-0.013-0.025-0.026-0.05-0.038-0.076c0.017-0.228,0.038-0.456,0.048-0.686
				c0.047-1.088-0.073-1.99-0.329-2.737c0.059-1.805-0.286-3.673-1.18-5.595c-2.657-5.713-8.629-7.174-14.507-6.757
				c-0.514-0.028-1.03-0.047-1.548-0.049c-0.197-0.164-0.404-0.318-0.624-0.463c0.267-0.483,0.534-0.966,0.801-1.45
				c0.153-0.276-0.194-0.633-0.476-0.494c-0.659,0.324-1.3,0.7-1.923,1.116c-2.65-1.074-5.991-1.229-8.069-0.711
				c-3.255,0.813-8.609,4.583-8.326,8.518c-0.519,0.606-0.988,1.236-1.355,1.866c-1.632-0.203-3.262-0.408-4.895-0.604
				c-0.337-0.041-0.549,0.328-0.364,0.604c1.243,1.862,2.918,2.082,4.587,1.577c-0.321,1.298,0.034,2.507,1.609,3.399
				c0.513,0.291,1.053,0.533,1.604,0.752c-0.532,0.104-1.045,0.217-1.524,0.333c-3.195,0.776-7.962,2.709-9.07,6.211
				c-1.052,3.327,2.511,5.268,5.014,6.492c1.52,0.743,3.091,1.308,4.691,1.713c0.003,0.051,0.007,0.099,0.011,0.148
				c-1.011-0.391-1.992-0.578-2.752-0.262c-1.284,0.535-1.034,1.932-0.41,2.899c0.857,1.328,2.497,1.965,4.101,2.353
				c-1.994,0.292-2.254,1.989,0.264,2.884c1.954,0.695,3.924,1.356,5.905,1.995c0.661,1.166,1.495,2.179,2.563,2.906
				c2.334,1.589,4.621,1.164,6.586-0.13c1.951,0.559,3.904,1.102,5.856,1.63c0.418,0.113,0.718-0.561,0.347-0.79
				c-0.703-0.435-1.819-1.344-3.04-2.14c2.88,0.76,5.618,0.803,8.138-0.245c0.204,0.07,0.406,0.145,0.611,0.211
				c1.292,0.418,3.298,1.35,4.644,1.157c1.814-0.26,1.899-2.589,2.345-4.174C674.556,90.665,675.092,88.002,675.462,85.309z
				 M678.148,80.037c-0.202,2.215,0.063,1.937-1.375,3.01c-0.368,0.275-0.748,0.532-1.126,0.792c0.043-0.37,0.082-0.741,0.118-1.112
				c0.154-0.213,0.317-0.422,0.464-0.638c1.152-1.692,1.718-3.178,1.838-4.483C678.622,78.157,678.656,78.963,678.148,80.037z
				 M666.216,95.342c-0.161-0.069-0.32-0.138-0.477-0.209c0.007-0.092,0.017-0.181,0.012-0.286c-0.034-0.727-0.44-1.472-0.893-2.169
				c0.342-0.233,0.66-0.451,0.942-0.637c0.738-0.488,1.467-1.013,2.188-1.554c1.069-0.179,1.812-0.687,2.067-1.644
				c0.605-0.516,1.193-1.055,1.767-1.607c0.458-0.213,0.916-0.435,1.37-0.666C671.695,90.289,669.537,93.759,666.216,95.342z
				 M646.431,94.117c-0.273-0.57-0.505-1.167-0.704-1.772c1.615,1.169,4.496,1.94,7.458,2.349c0.234,0.09,0.468,0.178,0.702,0.266
				c-0.462,0.115-0.877,0.381-1.215,0.856c-0.043,0.06-0.067,0.13-0.079,0.202c-0.769-0.231-1.54-0.454-2.307-0.69
				C648.998,94.932,647.715,94.524,646.431,94.117z M643.115,68.222c0.266-0.59,0.748-1.172,1.267-1.731
				c0.143,0.864-0.746,2.226-0.982,3.121c-0.005,0.018-0.008,0.035-0.012,0.052c-0.245,0.004-0.49,0.014-0.734,0.029
				C642.277,69.144,642.427,68.653,643.115,68.222z M673.324,67.927c0.016,0.633-0.017,1.273-0.098,1.912
				c-0.633-0.795-1.366-1.504-2.174-2.134c-0.218-0.63-0.427-1.264-0.64-1.894c0.408,0.094,0.796,0.22,1.155,0.39
				C672.401,66.595,672.957,67.202,673.324,67.927z M677.115,77.061c0,0.585-0.106,1.217-0.339,1.902
				c-0.219,0.641-0.515,1.272-0.865,1.891c-0.045-0.431-0.591-0.516-0.794-0.152c0.402-1.462,0.575-2.986,0.491-4.476
				c0.106,0.073,0.211,0.145,0.315,0.219l0.847,0.504C676.896,76.981,677.002,77.023,677.115,77.061z M664.268,94.448
				c-0.336-0.16-0.644-0.306-0.906-0.425c0.294-0.243,0.515-0.508,0.671-0.789c0.004-0.003,0.008-0.006,0.012-0.008
				C664.35,93.652,664.528,94.038,664.268,94.448z M647.049,88.367c0.835,0.905,1.83,1.679,2.913,2.323
				c-1.255-0.521-2.484-1.116-3.701-1.731c0.091-0.114,0.185-0.229,0.296-0.351C646.622,88.536,646.808,88.453,647.049,88.367z
				 M641.216,85.356c0.7,0.101,1.402,0.177,2.106,0.22c-0.233,0.341-0.672,0.353-1.727,0.116
				C641.461,85.59,641.335,85.478,641.216,85.356z M640.301,79.886c0.172-0.454,0.378-0.903,0.606-1.349
				c0.387-0.534,0.826-1.018,1.324-1.409c0.184,0.521,0.426,1.017,0.721,1.484c0.024,1.19,0.204,2.356,0.624,3.354
				c-0.166,0.853-0.192,1.845-0.154,2.843c-0.956-0.057-1.91-0.164-2.857-0.331C639.85,83.19,639.71,81.445,640.301,79.886z
				 M645.407,65.458c-0.011-0.002-0.022-0.003-0.033-0.004c0.16-0.17,0.315-0.337,0.454-0.499c1.151-1.345,2.326-2.668,3.525-3.969
				c0.711-0.771,1.424-1.567,2.158-2.346c0.677,0.211,1.354,0.364,2.031,0.473c-0.612,1.135-1.216,2.275-1.808,3.42
				c-0.3,0.369-0.594,0.746-0.885,1.125c-1.097,0.185-2.099,0.685-2.85,1.709c-0.142,0.193-0.102,0.515,0.147,0.608
				c0.003,0.001,0.006,0.002,0.009,0.003c-0.327,0.298-0.636,0.612-0.932,0.937c-1.037,0.694-2.039,1.492-2.894,2.401
				c0.334-1.136,0.793-2.254,1.369-3.328C645.815,65.771,645.639,65.489,645.407,65.458z M657.235,58.546
				c-0.144,0.002-0.289,0.001-0.434,0.001c0.034-0.351-0.36-0.69-0.703-0.423c-0.163,0.127-0.321,0.261-0.48,0.393
				c-0.293-0.015-0.585-0.038-0.877-0.066c0.219-0.403,0.436-0.808,0.657-1.21c0.329-0.061,0.658-0.117,0.99-0.167
				C656.819,57.51,657.122,58.001,657.235,58.546z M656.573,60.925c-0.584,0.806-1.378,1.478-2.267,2.07
				c-0.216,0.023-0.426,0.059-0.637,0.092c0.836-1.28,1.722-2.527,2.621-3.738c0.323,0.007,0.647,0.009,0.971,0.006
				C657.192,59.843,656.978,60.366,656.573,60.925z M670.566,68.645c0.232,0.636,0.479,1.267,0.751,1.887
				c-1.424-0.452-2.951-0.78-4.462-1.004c-0.063-1.208-0.312-2.424-0.861-3.457c1.23,0.488,2.412,1.079,3.506,1.79
				C669.878,68.105,670.231,68.369,670.566,68.645z M674.434,83.016c-0.15,0.19-0.303,0.377-0.459,0.563
				c0.359-0.675,0.665-1.383,0.91-2.114C674.744,81.974,674.594,82.492,674.434,83.016z M645.655,91.012
				c-0.014-0.03-0.03-0.059-0.041-0.09c1.367,0.122,2.739,0.201,4.111,0.272c1.261,0.465,2.525,0.858,3.79,1.152
				c0.267,0.103,0.54,0.203,0.816,0.299c0.026,0.568,0.074,1.104,0.226,1.581c-0.4-0.058-0.791-0.118-1.158-0.175
				C650.824,93.02,648.284,91.847,645.655,91.012z M643.771,79.716c0.124,0.144,0.253,0.283,0.385,0.422
				c-0.002,0.107-0.005,0.214-0.009,0.321c-0.041,0.061-0.084,0.118-0.121,0.184C643.926,80.327,643.841,80.012,643.771,79.716z
				 M663.334,65.194c0.2,0.054,0.399,0.111,0.598,0.17c-0.252,0.032-0.502,0.064-0.749,0.097c-0.092,0.012-0.189,0.028-0.283,0.041
				C663.045,65.401,663.19,65.299,663.334,65.194z M661.721,66.427c0.956-0.138,2.076-0.353,3.243-0.53
				c0.505,0.636,0.885,1.505,1.085,2.669c0.049,0.287,0.081,0.575,0.105,0.865c-0.296-0.038-0.589-0.072-0.881-0.102
				c-1.283-0.976-2.664-1.879-4.092-2.679c0.098-0.061,0.194-0.125,0.291-0.187C661.555,66.451,661.638,66.439,661.721,66.427z
				 M672.878,76.566c-0.185,0.652-0.396,1.294-0.629,1.927c-0.201-0.71-0.465-1.413-0.789-2.102c0.58-0.927,1.093-1.879,1.517-2.856
				c0.053,0.076,0.102,0.154,0.156,0.228c0.112,0.153,0.231,0.303,0.351,0.452C673.291,75.09,673.067,75.902,672.878,76.566z
				 M669.959,86.882c-0.09-0.271-0.201-0.535-0.348-0.785c0.367-0.709,0.645-1.466,0.827-2.24c0.528-0.88,1.016-1.785,1.46-2.712
				C671.929,83.217,671.271,85.189,669.959,86.882z M666.854,89.645c-0.145,0.007-0.303-0.005-0.478-0.04
				c0.225-0.132,0.443-0.275,0.655-0.431c0.252-0.087,0.512-0.178,0.786-0.278c-0.013,0.038-0.027,0.074-0.042,0.109
				C667.473,89.229,667.166,89.44,666.854,89.645z M659.585,94.289c-0.318-0.125-0.632-0.261-0.942-0.404
				c0.079-0.099,0.16-0.196,0.238-0.296c0.493,0.013,0.979-0.013,1.453-0.084c0.072,0.039,0.143,0.078,0.215,0.117
				C660.232,93.851,659.911,94.076,659.585,94.289z M657.066,94.492c-0.216-0.011-0.431-0.024-0.647-0.043
				c-0.389-0.255-0.722-0.661-0.974-1.259c0.573,0.397,1.169,0.763,1.785,1.097C657.175,94.355,657.121,94.423,657.066,94.492z
				 M645.375,82.846c-0.045-0.401-0.071-0.812-0.063-1.239c0.111-0.038,0.221-0.077,0.332-0.115
				c0.072,0.058,0.143,0.117,0.215,0.174c0.223,0.298,0.453,0.592,0.692,0.88C646.114,82.965,645.721,83.019,645.375,82.846z
				 M656.685,66.298c0.024,0.058,0.041,0.119,0.063,0.178c-0.411,0.043-0.819,0.076-1.224,0.096c0.327-0.201,0.669-0.395,1.02-0.581
				C656.591,66.092,656.641,66.188,656.685,66.298z M656.925,66.992c0.087,0.297,0.153,0.604,0.207,0.917
				c-1.787,0.812-3.653,1.441-5.568,1.853c0.774-0.782,1.597-1.508,2.447-2.157c0.23-0.176,0.476-0.353,0.734-0.53
				C655.47,67.076,656.196,67.045,656.925,66.992z M660.865,67.511c0.899,0.524,1.811,1.082,2.708,1.681
				c-0.987-0.057-1.923-0.073-2.759-0.051c-0.991,0.026-1.98,0.091-2.967,0.172c0.004-0.277,0-0.555-0.014-0.832
				c0.838-0.397,1.659-0.828,2.46-1.295C660.485,67.293,660.676,67.4,660.865,67.511z M666.167,71.108
				c-0.095,1.403-0.437,2.801-0.937,4.13c-0.036-0.311-0.105-0.627-0.24-0.953c-1.25-3.027-5.158-2.286-7.174-0.626
				c-0.271,0.223-0.516,0.462-0.749,0.709c0.296-1.007,0.491-1.86,0.562-2.401c0.077-0.59,0.149-1.236,0.189-1.9
				c2.301-0.192,4.601-0.259,6.895-0.083C665.209,70.344,665.696,70.719,666.167,71.108z M669.327,84.322
				c-0.164,0.255-0.333,0.507-0.505,0.758c-0.735-0.769-1.698-1.431-2.722-2.007c1.027-1.097,2.067-2.256,3.045-3.468
				C669.737,80.989,669.791,82.707,669.327,84.322z M657.24,68.753c0.017,0.202,0.028,0.406,0.034,0.611
				c-0.696,0.063-1.39,0.13-2.084,0.21c0.622-0.222,1.228-0.456,1.804-0.707C657.076,68.83,657.157,68.789,657.24,68.753z
				 M656.37,75.203c-0.366,0.503-0.673,1.041-0.932,1.603c-2.085-1.626-4.121-3.546-5.268-5.494
				c0.102-0.127,0.207-0.251,0.313-0.375c2.258-0.304,4.525-0.615,6.792-0.822C657.226,71.821,656.86,73.597,656.37,75.203z
				 M647.562,80.906c0.003,0.018,0.006,0.035,0.009,0.053c-0.053,0.141-0.114,0.283-0.191,0.424
				c-0.026,0.048-0.051,0.088-0.078,0.134c-0.04-0.03-0.081-0.058-0.12-0.088c-0.041-0.136-0.079-0.279-0.11-0.433
				c0.109-0.038,0.218-0.076,0.327-0.113C647.451,80.886,647.506,80.896,647.562,80.906z M655.076,84.714
				c-0.046-0.058-0.073-0.123-0.107-0.185c-0.001-0.238,0-0.476,0.002-0.715c1.725-0.632,3.399-1.413,4.99-2.342
				c0.093-0.054,0.193-0.114,0.292-0.172c0.294,0.166,0.59,0.329,0.886,0.489C659.088,84.169,656.446,86.443,655.076,84.714z
				 M661.418,80.76c-0.047-0.025-0.101-0.056-0.15-0.083c0.57-0.364,1.161-0.777,1.712-1.237c-0.328,0.46-0.721,0.985-1.159,1.529
				C661.682,80.899,661.543,80.828,661.418,80.76z M663.307,78.011c-0.681,0.841-1.7,1.589-2.78,2.243
				c-0.571-0.335-1.244-0.748-1.975-1.227c1.475-0.977,3.449-1.849,5.121-2.122c0.113-0.018,0.221-0.028,0.331-0.042
				C663.805,77.301,663.558,77.701,663.307,78.011z M659.479,80.851c-0.701,0.38-1.392,0.724-1.998,1.023
				c-0.796,0.392-1.609,0.746-2.435,1.065c0.521-1.209,1.795-2.53,2.596-3.23C658.245,80.105,658.859,80.485,659.479,80.851z
				 M655.065,81.736c0.101-1.159,0.298-2.3,0.658-3.378c0.398,0.301,0.805,0.591,1.216,0.875
				C656.156,79.984,655.512,80.83,655.065,81.736z M654.51,79.768c-0.642,1.219-1.452,2.403-2.372,2.901
				c-0.66-0.497-1.342-0.975-2.043-1.412c0.122-0.351,0.233-0.704,0.331-1.055c0.586-2.098,1.005-4.63,0.277-6.694
				c1.254,1.607,2.723,3.034,4.323,4.311C654.807,78.45,654.639,79.103,654.51,79.768z M648.646,81.349
				c0.158,0.09,0.319,0.192,0.481,0.298c-0.083,0.212-0.17,0.422-0.264,0.629C648.781,81.966,648.708,81.657,648.646,81.349z
				 M649.402,82.924c0.133-0.27,0.258-0.545,0.373-0.824c0.306,0.225,0.602,0.454,0.875,0.667c-0.157,0.005-0.314,0.011-0.471,0.016
				c-0.257,0.083-0.498,0.139-0.724,0.171C649.436,82.944,649.419,82.935,649.402,82.924z M649.293,72.502
				c0.291,0.358,0.538,0.77,0.719,1.259c0.628,1.7,0.285,3.655-0.119,5.366c-0.131,0.558-0.29,1.139-0.481,1.718
				c-0.311-0.178-0.625-0.343-0.942-0.501c-0.354-2.498-0.134-4.95,0.491-7.336C649.07,72.837,649.18,72.669,649.293,72.502z
				 M652.694,83.093c0.582-0.604,1.13-1.366,1.633-2.214c-0.104,0.795-0.16,1.595-0.186,2.385c-0.288,0.1-0.577,0.196-0.867,0.287
				C653.084,83.398,652.889,83.246,652.694,83.093z M656.159,86.061c2.183-0.21,4.205-2.286,5.64-3.923
				c0.336,0.176,0.672,0.349,1.009,0.517c0.499,0.25,1.095,0.496,1.696,0.766c-1.146,1.158-2.241,2.439-2.605,3.923
				c-0.231-0.039-0.463-0.074-0.694-0.111c-0.967-0.609-2.912-1.312-3.463-0.476c-0.112-0.012-0.224-0.018-0.335-0.029
				c-0.288-0.111-0.578-0.217-0.864-0.333C656.415,86.285,656.286,86.173,656.159,86.061z M663.335,88.752
				c-0.097-0.029-0.194-0.062-0.291-0.091c-0.006-0.106-0.016-0.212-0.013-0.316c0.936,0.159,1.861,0.287,2.767,0.325
				c-0.544,0.156-1.091,0.283-1.635,0.371C663.544,88.843,663.072,88.673,663.335,88.752z M666.691,87.863
				c-0.861,0.054-1.777-0.008-2.754-0.173c-0.262-0.044-0.523-0.089-0.785-0.133c0.746-1.175,1.453-2.374,2.127-3.589
				c0.036-0.04,0.073-0.08,0.11-0.121c0.698,0.36,1.341,0.77,1.76,1.283c0.119,0.096,0.238,0.192,0.357,0.288
				c0.107,0.401,0.193,0.771,0.261,1.115C667.419,86.985,667.061,87.428,666.691,87.863z M667.211,78.324
				c-0.637,1.443-1.341,2.849-2.093,4.228c-0.916-0.465-1.828-0.876-2.614-1.248c1.126-1.361,2.097-2.862,2.834-4.469
				c1.592,0.143,2.736,0.936,3.441,2.065c-0.643,0.764-1.318,1.506-2.005,2.231c0.406-0.822,0.799-1.649,1.167-2.483
				C668.148,78.178,667.418,77.854,667.211,78.324z M657.778,78.51c-0.536-0.365-1.091-0.759-1.65-1.177
				c0.396-0.86,0.918-1.668,1.616-2.39c0.896-0.928,2.058-1.894,3.441-1.926c2.93-0.067,3.462,1.408,3.149,2.866
				C662.095,76.026,659.674,77.016,657.778,78.51z M647.305,78.38c0.016,0.495,0.051,0.995,0.109,1.497
				c-0.174-0.066-0.344-0.125-0.504-0.17c-0.044-0.556-0.001-1.148,0.097-1.737C647.116,78.1,647.217,78.237,647.305,78.38z
				 M652.885,84.492c0.253,0.207,0.501,0.421,0.75,0.633c-0.369-0.171-0.739-0.348-1.111-0.529
				C652.645,84.563,652.765,84.526,652.885,84.492z M661.207,90.454c0.369,0.051,0.744,0.076,1.121,0.079
				c0.177,0.36,0.374,0.71,0.587,1.055c-0.377,0.13-0.759,0.244-1.144,0.346c-0.474-0.098-0.948-0.196-1.425-0.276
				C660.638,91.261,660.923,90.858,661.207,90.454z M669.525,77.981c-0.911-1.254-2.262-1.902-3.795-2.07
				c0.533-1.354,0.904-2.768,1.06-4.224c0.002-0.014,0.003-0.029,0.004-0.043c1.559,1.378,2.919,2.949,3.86,4.773
				C670.3,76.952,669.922,77.473,669.525,77.981z M657.754,67.616c-0.031-0.23-0.069-0.458-0.119-0.681
				c0.6-0.054,1.201-0.121,1.804-0.196C658.886,67.049,658.324,67.341,657.754,67.616z M650.303,70.004
				c-0.119,0.02-0.239,0.034-0.358,0.052c0.435-1.091,0.94-2.166,1.499-3.222c0.694,0.109,1.39,0.175,2.087,0.211
				C652.371,67.922,651.277,68.913,650.303,70.004z M648.436,68.584c0.021,0.191,0.05,0.383,0.088,0.575
				c-0.06,0.135-0.124,0.269-0.184,0.405c-0.101,0.229-0.204,0.461-0.309,0.695c-0.185,0.012-0.369,0.025-0.554,0.032
				c-0.099-0.039-0.203-0.07-0.304-0.104c0.343-0.417,0.675-0.829,0.988-1.235C648.253,68.831,648.344,68.705,648.436,68.584z
				 M648.301,71.605c-0.21,0.661-0.39,1.329-0.538,2.004c-0.135,0.254-0.266,0.51-0.387,0.77c-0.245,0.528-0.476,1.111-0.67,1.721
				c-0.083-0.064-0.165-0.119-0.248-0.175c0.488-1.483,1.088-2.952,1.729-4.391C648.225,71.559,648.264,71.581,648.301,71.605z
				 M646.371,77.362c-0.153,0.73-0.234,1.476-0.212,2.204c-0.229-0.021-0.443-0.019-0.637,0.01c0.14-0.805,0.331-1.611,0.559-2.415
				C646.18,77.224,646.278,77.29,646.371,77.362z M644.901,78.696c-0.068-0.142-0.128-0.286-0.19-0.43
				c-0.068-0.591-0.156-1.165-0.26-1.708c0.323,0.042,0.644,0.126,0.952,0.251C645.209,77.436,645.038,78.065,644.901,78.696z
				 M651.109,84.944c0.865,0.452,1.902,0.973,3.042,1.514c0,0.032,0.001,0.065,0.002,0.098c-0.76-0.002-1.519,0.023-2.276,0.085
				c-0.585-0.485-1.157-0.986-1.717-1.499C650.478,85.082,650.794,85.014,651.109,84.944z M654.165,87.314
				c0.008,0.38,0.008,0.759,0.018,1.138c-0.481-0.359-0.96-0.728-1.436-1.106C653.219,87.324,653.692,87.312,654.165,87.314z
				 M655.003,87.334c0.399,0.013,0.798,0.033,1.196,0.06c0.089,0.039,0.177,0.079,0.266,0.118c0.472,0.368,0.948,0.714,1.433,1.023
				c0.445,0.881,1.314,1.425,2.343,1.721c-0.299,0.419-0.597,0.839-0.903,1.254c-0.309-0.045-0.617-0.097-0.927-0.135
				c-0.6-0.373-1.193-0.757-1.775-1.158c-0.555-0.383-1.118-0.782-1.681-1.191C654.971,88.453,654.993,87.884,655.003,87.334z
				 M656.52,91.169c-0.511-0.048-1.023-0.088-1.536-0.127c-0.023-0.323-0.036-0.652-0.039-0.986
				C655.463,90.437,655.988,90.808,656.52,91.169z M657.748,91.976c0.251,0.16,0.503,0.318,0.758,0.473
				c-0.7,0.036-1.404,0.028-2.112-0.035c-0.204-0.056-0.402-0.113-0.594-0.17c-0.255-0.18-0.506-0.368-0.751-0.561
				c-0.004-0.031-0.008-0.062-0.012-0.093C655.794,91.696,656.78,91.837,657.748,91.976z M670.675,82.022
				c0.015-0.766-0.072-1.526-0.283-2.251c-0.125-0.426-0.289-0.804-0.474-1.154c0.371-0.49,0.727-0.988,1.067-1.495
				c0.379,0.864,0.639,1.73,0.782,2.588C671.436,80.497,671.073,81.269,670.675,82.022z M672.504,72.82
				c-0.369,1.008-0.843,1.965-1.395,2.879c-0.83-1.545-1.954-2.997-3.309-4.256c-0.299-0.278-0.618-0.55-0.935-0.822
				c0.004-0.13,0.006-0.262,0.006-0.393c0.344,0.052,0.687,0.103,1.03,0.167c1.164,0.219,2.52,0.546,3.828,1.025
				C671.965,71.899,672.224,72.366,672.504,72.82z M657.49,66.389c-0.079-0.253-0.176-0.496-0.288-0.731
				c0.001-0.001,0.003-0.001,0.004-0.002c0.439,0.184,0.874,0.379,1.303,0.587C658.171,66.296,657.83,66.345,657.49,66.389z
				 M656.171,65.298c-0.176,0.102-0.349,0.203-0.515,0.303c-0.508,0.306-1.008,0.637-1.5,0.985
				c-0.835-0.031-1.635-0.145-2.383-0.362c0.169-0.307,0.343-0.612,0.52-0.915c0.455-0.243,0.915-0.497,1.371-0.762
				c0.25,0.051,0.5,0.108,0.746,0.169c0.583,0.143,1.156,0.319,1.722,0.52C656.144,65.256,656.157,65.277,656.171,65.298z
				 M653.784,60.213c0.178-0.332,0.36-0.661,0.539-0.993c0.146,0.017,0.292,0.031,0.438,0.044
				C654.429,59.571,654.102,59.887,653.784,60.213z M647.96,67.588c0.018-0.011,0.039-0.024,0.058-0.036
				c-0.573,0.809-1.143,1.608-1.716,2.383c-0.22-0.05-0.444-0.093-0.67-0.128c0.182-0.294,0.406-0.618,0.665-0.961
				C646.816,68.389,647.376,67.965,647.96,67.588z M646.087,71.481c0.491-0.052,0.982-0.108,1.473-0.167
				c-0.603,1.354-1.219,2.781-1.739,4.24c-0.569-0.26-1.123-0.336-1.657-0.275c-0.08-0.31-0.177-0.67-0.29-1.051
				c0.009-0.04,0.014-0.081,0.023-0.121C644.615,73.212,645.362,72.337,646.087,71.481z M644.319,84.849
				c-0.003-0.02-0.005-0.038-0.007-0.058c0.125-0.414,0.229-0.841,0.308-1.281c0.011,0.009,0.021,0.021,0.033,0.03
				c0.071,0.454,0.175,0.892,0.31,1.313C644.747,84.853,644.533,84.854,644.319,84.849z M645.589,84.026
				c0.623,0.155,1.264-0.007,1.757-0.569c0.169,0.185,0.338,0.371,0.512,0.552c-0.197,0.267-0.412,0.519-0.643,0.753
				c-0.457,0.039-0.915,0.067-1.373,0.083C645.745,84.579,645.66,84.306,645.589,84.026z M651.609,87.426
				c0.52,0.43,1.04,0.852,1.551,1.261c0.349,0.28,0.702,0.555,1.059,0.826c0.016,0.491,0.033,0.982,0.051,1.472
				c-0.02-0.002-0.041-0.002-0.061-0.004c-1.159-1.029-2.185-2.206-3.038-3.504C651.318,87.461,651.463,87.44,651.609,87.426z
				 M672.497,84.353c-0.116,0.176-0.235,0.342-0.355,0.503c0.587-1.64,0.691-3.39,0.389-5.13c0.655-1.572,1.174-3.195,1.52-4.849
				c0.128,0.138,0.262,0.27,0.397,0.4C674.99,78.292,674.342,81.554,672.497,84.353z M673.692,73.161
				c-0.126-0.157-0.247-0.322-0.364-0.496c0.047-0.128,0.091-0.257,0.135-0.385c0.099,0.199,0.183,0.405,0.27,0.609
				C673.72,72.979,673.707,73.071,673.692,73.161z M672.325,70.878c-0.145-0.3-0.282-0.603-0.412-0.91
				c0.299,0.345,0.578,0.701,0.828,1.074C672.603,70.986,672.466,70.931,672.325,70.878z M662.294,64.931
				c-0.441,0.309-0.889,0.607-1.343,0.895c-0.324,0.058-0.653,0.116-0.985,0.175c-0.567-0.287-1.138-0.553-1.713-0.8
				c0.722-0.283,1.455-0.503,2.169-0.63C661.046,64.672,661.671,64.788,662.294,64.931z M657.173,64.754
				c-0.252-0.096-0.504-0.174-0.756-0.26c-0.131-0.138-0.273-0.27-0.427-0.392c0.775,0.022,1.534,0.086,2.228,0.164
				C657.861,64.416,657.512,64.581,657.173,64.754z M653.954,58.356c-0.577-0.083-1.153-0.201-1.726-0.359
				c0.729-0.211,1.474-0.402,2.229-0.566C654.288,57.739,654.121,58.048,653.954,58.356z M643.873,71.804
				c0.121-0.015,0.239-0.032,0.355-0.049c-0.175,0.439-0.327,0.886-0.465,1.338c-0.014,0.017-0.028,0.033-0.042,0.05
				c0.008-0.401,0.037-0.802,0.081-1.203C643.825,71.896,643.849,71.85,643.873,71.804z M644.4,85.619
				c0.284,0.006,0.569,0.015,0.853,0.012c0.052,0.121,0.103,0.241,0.16,0.358c-0.084,0.035-0.164,0.074-0.251,0.104
				c-0.241,0.086-0.476,0.15-0.703,0.195C644.435,86.066,644.416,85.843,644.4,85.619z M647.574,85.505
				c0.452-0.043,0.903-0.09,1.353-0.154c0.242,0.539,0.51,1.064,0.8,1.576c-0.187,0.035-0.375,0.068-0.561,0.108
				c-0.509,0.11-1.17,0.231-1.834,0.412c-0.294-0.358-0.557-0.736-0.794-1.132C646.912,86.081,647.256,85.809,647.574,85.505z
				 M649.256,87.785c0.293-0.064,0.589-0.112,0.884-0.161c0.738,1.18,1.604,2.272,2.578,3.262c-0.273-0.017-0.545-0.035-0.818-0.051
				c-1.521-0.709-2.886-1.617-3.976-2.73C648.672,87.905,649.413,87.751,649.256,87.785z M648.194,90.597
				c-0.693-0.052-1.386-0.11-2.078-0.179c-0.188-0.019-0.376-0.04-0.563-0.06c0.028-0.233,0.121-0.496,0.291-0.793
				C646.626,89.928,647.41,90.274,648.194,90.597z M669.97,66.934c-0.756-0.494-1.557-0.931-2.387-1.317
				c0.677-0.032,1.339-0.021,1.969,0.051C669.693,66.096,669.831,66.518,669.97,66.934z M666.434,65.117
				c-0.272-0.109-0.545-0.212-0.82-0.311c-0.29-0.104-0.595-0.208-0.907-0.311c-0.073-0.059-0.148-0.115-0.226-0.17
				c0.209-0.164,0.418-0.327,0.623-0.494c0.445-0.364,1.877-1.326,2.828-2.3c0.587,1.147,1.039,2.388,1.45,3.621
				C668.448,65.049,667.449,65.054,666.434,65.117z M666.629,59.493c0.331,0.403,0.617,0.84,0.886,1.291
				c-0.436,0.581-1.364,1.085-1.806,1.472c-0.646,0.564-1.313,1.104-1.993,1.628c-0.859-0.39-1.777-0.487-2.705-0.391
				c-1.591-0.339-3.261-0.567-4.876-0.581c1.4-1.088,2.435-2.298,2.551-3.594c1.382-0.056,2.776-0.153,4.191-0.186
				c0.651-0.015,2.277-0.129,3.452,0.042C666.434,59.277,666.536,59.38,666.629,59.493z M663.849,58.305
				c-1.75-0.018-3.487,0.126-5.212,0.201c-0.026-0.121-0.057-0.242-0.101-0.364c-0.146-0.412-0.363-0.785-0.616-1.135
				c2.266,0.11,5.197,0.16,7.267,1.312C664.654,58.301,664.175,58.309,663.849,58.305z M654.161,56.119
				c0.126-0.104,0.252-0.207,0.381-0.307c0.157,0.076,0.31,0.157,0.459,0.241C654.72,56.071,654.44,56.094,654.161,56.119z
				 M650.565,58.255c-2.207,2.247-4.196,4.806-6.063,7.086c-1.838-0.242-3.677-0.482-5.517-0.714
				c0.53-0.355,1.031-0.736,1.484-1.107c3.291-2.694,6.448-4.72,10.065-5.765C650.439,57.903,650.451,58.117,650.565,58.255z
				 M639.344,84.229c-0.096-0.022-0.193-0.044-0.289-0.067c-0.008-0.203,0.012-0.442,0.053-0.729
				C639.167,83.709,639.248,83.974,639.344,84.229z M643.147,87.174c0.146,0.012,0.297,0.013,0.449,0.011
				c0.015,0.144,0.03,0.287,0.047,0.432c-0.201-0.103-0.402-0.205-0.603-0.306C643.077,87.269,643.111,87.22,643.147,87.174z
				 M644.556,87.08c0.442-0.084,0.855-0.213,1.241-0.382c0.211,0.353,0.441,0.694,0.695,1.018c-0.481,0.183-0.923,0.414-1.266,0.714
				c-0.167-0.086-0.334-0.172-0.5-0.258C644.661,87.81,644.605,87.446,644.556,87.08z M661.355,94.846
				c0.441-0.073,0.813-0.163,1.096-0.273c0.353,0.166,0.709,0.326,1.067,0.482c-0.693,0.304-1.52,0.143-2.316-0.131
				C661.254,94.899,661.304,94.872,661.355,94.846z M676.957,75.876c-0.509-0.345-1.019-0.686-1.511-1.055
				c-0.058-0.34-0.125-0.677-0.212-1.008c-0.057-0.219-0.127-0.43-0.197-0.641C675.961,73.9,676.66,74.791,676.957,75.876z
				 M673.24,66.782c-0.762-0.806-1.808-1.268-3.01-1.503c-0.05-0.147-0.1-0.294-0.151-0.44c-0.438-1.244-0.934-2.653-1.608-3.942
				c0.263-0.374,0.406-0.73,0.333-1.033c-0.195-0.814-1.066-1.201-2.052-1.386c-0.43-0.427-0.912-0.791-1.454-1.073
				c0.242,0.065,0.483,0.132,0.721,0.209C670.229,58.966,672.755,62.651,673.24,66.782z M638.563,63.468
				c0.134,0.186,0.447,0.265,0.618,0.103c1.422-1.342,2.698-2.758,3.871-4.326c0.286-0.383-0.204-0.959-0.601-0.627
				c-0.692,0.577-1.754,1.468-2.808,2.512c0.002-0.88,1.45-2.52,1.755-2.871c2.227-2.564,5.707-3.991,9.094-3.619
				c0.934,0.102,2.109,0.375,3.218,0.809c-0.358,0.272-0.709,0.557-1.055,0.852c-1.121,0.167-2.193,0.401-3.162,0.71
				c-2.395,0.762-4.555,2.08-6.566,3.564c-1.231,0.909-3.091,2.763-5.01,3.918c-0.026-0.004-0.052-0.007-0.078-0.01
				C638.044,64.146,638.289,63.806,638.563,63.468z M632.947,64.648c1.226,0.148,2.452,0.299,3.678,0.451
				c-0.009,0.018-0.018,0.037-0.026,0.056C635.287,65.668,634.009,65.676,632.947,64.648z M637.271,65.762
				c0.016-0.064,0.042-0.13,0.063-0.195c0.204-0.094,0.407-0.197,0.608-0.306c0.049,0.006,0.098,0.012,0.147,0.018
				c0.924,0.116,1.848,0.233,2.772,0.352c0.338,0.044,2.435,0.132,3.125,0.337c-0.038,0.045-0.076,0.092-0.113,0.137
				c-0.553,0.664-2.267,2.18-2.933,3.552C638.653,69.051,636.743,67.906,637.271,65.762z M636.571,83.418
				c-1.67-0.603-3.379-1.372-4.83-2.409c-2.989-2.136-1.896-5.446,0.689-7.344c1.615-1.186,3.51-1.961,5.482-2.453
				c-2.015,1.858-2.778,5.289-2.533,7.737c0.022,0.227,0.367,0.184,0.35-0.042c-0.153-2.017,0.226-3.852,1.335-5.548
				c0.444-0.679,1.388-2.309,2.272-2.368c0.951-0.064,2.192,0.763,2.939,1.575c-0.291,0.825-0.449,1.706-0.415,2.655
				c0.003,0.07,0.014,0.136,0.019,0.206c-1.503,1.992-2.752,4.152-2.877,6.409c-0.193,0.763-0.313,1.516-0.35,2.219
				C637.953,83.872,637.258,83.666,636.571,83.418z M637.003,88.197c0.184-0.859,0.367-1.718,0.551-2.577
				c0.444,0.178,0.879,0.376,1.317,0.569c0.031,0.096,0.063,0.192,0.101,0.281c0.714,1.67,2.19,2.217,3.43,1.407
				c0.387,0.196,0.774,0.392,1.162,0.586c0.07,0.035,0.139,0.069,0.209,0.103c0.081,0.535,0.178,1.076,0.294,1.616
				c-0.77-0.103-1.538-0.222-2.299-0.373C640.928,89.643,637.444,89.225,637.003,88.197z M640.757,92.302l-1.119-0.362
				c0.507-0.943,1.168-1.284,1.981-1.023c0.648-0.043,1.496,0.275,2.122,0.431c0.223,0.056,0.444,0.12,0.666,0.181
				c0.214,0.755,0.466,1.496,0.775,2.197C643.816,93.299,641.971,93.028,640.757,92.302z M650.973,97.937
				c-1.75-0.239-2.984-1.273-3.882-2.638c2.264,0.717,4.539,1.401,6.82,2.062C653.034,97.836,652.062,98.086,650.973,97.937z
				 M656.01,96.816c0.167-0.025,0.335-0.056,0.501-0.094c0.118,0.066,0.229,0.128,0.361,0.202c0.347,0.21,0.691,0.425,1.037,0.636
				c-0.697-0.195-1.395-0.382-2.09-0.582C655.883,96.925,655.947,96.871,656.01,96.816z M658.925,95.837
				c0.334-0.09,0.671-0.208,1.01-0.34c0.413,0.146,0.833,0.279,1.259,0.396c0.349,0.096,0.806,0.229,1.295,0.339
				c-0.619,0.021-1.263-0.006-1.943-0.099C660,96.059,659.461,95.954,658.925,95.837z M670.583,96.38
				c-0.911,0.17-2.208-0.184-3.502-0.684c0.786-0.416,1.55-0.94,2.288-1.598c2.468-2.203,3.933-5.104,5.023-8.164
				c0.021-0.012,0.042-0.023,0.063-0.035c-0.146,0.944-0.307,1.886-0.497,2.825C673.535,90.808,673.179,95.894,670.583,96.38z"/>
		</g>
		<g>
			<path style="fill:#D9F8F9;" d="M512.851,251.632c2.229-0.586,6.641,1.9,9.168,3.501c4.901-4.727,24.134,1.854,32.874,1.605
				c1.325-0.038,2.413-0.986,3.328-2.653c-4.395-3.306-12.614-7.751-25.626-8.457c-0.343-0.019-0.669-0.029-1.004-0.043
				c-3.513-0.15-6.547-0.069-9.142,0.176c-7.62,0.721-11.565,2.812-13.469,4.307c0.92,0.651,1.933,1.281,2.732,1.757
				C512.11,251.785,512.494,251.726,512.851,251.632z"/>
			<path style="fill:#2C5887;" d="M568.16,155.25c0,0,0,0,0,0.01c-3.26,6-20.66,2.25-23.83,1.51c4.06,0.51,13.18-9.89,6.86-19.35
				c-6.25-9.35-17.95,2.06-16.7-1.05c0.07-0.18,0.17-0.38,0.32-0.65c2.89-5.11,0-15.32,0-15.32l5.28-8.43c0,0-13.62,4.34-31.22,3.32
				c-17.6-1.02-24.96-6.64-24.96-6.64s-1.64-1.32-3.73-3.59l-0.19-0.21l-0.68-0.77c0,0-5.38-8.95-4.88-17.76
				c6.64,8.42,20.86,21.75,44.55,22.33c34.72,0.85,35.74,0.85,35.23,6.98c-0.51,6.13-0.51,11.24,5.96,10.55
				c6.47-0.68,0.34,3.92,13.11,4.69C573.28,130.87,564.73,141.69,568.16,155.25z"/>
			<path style="fill:#1B7D96;" d="M584.26,125.76c-5.88,3.83-10.98,5.11-10.98,5.11c-12.77-0.77-6.64-5.37-13.11-4.69
				c-6.47,0.69-6.47-4.42-5.96-10.55c0.51-6.13-0.51-6.13-35.23-6.98c-23.69-0.58-37.91-13.91-44.55-22.33
				c0.25-4.57,2.1-9.11,7.1-12.34c14.64-9.45,18.57-13.25,30.18-5.87c11.61,7.37,8.82,8.65,18.59,9.4c0.01,0,0.01,0,0.02,0
				c9.54,1.64,19.61-0.36,28.66,2.55c14.3,4.59,14.81,15.83,14.81,15.83s10.21,3.06,10.47,9.19
				C584.51,111.21,590.13,121.93,584.26,125.76z"/>
			<path style="fill:#53A7A9;" d="M494.042,115.546c9.702,2.468,28.936,4.255,37.447,2.043l-0.936,3.66
				c0,0,6.496,6.157,3.929,15.121l0.005-0.004c0.069-0.173,0.169-0.381,0.321-0.649c2.894-5.106,0-15.319,0-15.319l5.277-8.425
				c0,0-13.617,4.34-31.214,3.319s-24.956-6.638-24.956-6.638c-0.099,0.138-0.185,0.279-0.282,0.417
				C483.66,109.209,484.514,113.122,494.042,115.546z"/>
			<path style="fill:#BCECED;" d="M558.72,174.27c3.3-3.91,8.3-8.11,12.61-11.43c-1.53-2.59-2.54-5.13-3.17-7.58
				c-3.26,6-20.66,2.25-23.83,1.51c4.06,0.51,13.18-9.89,6.86-19.35c-6.25-9.35-17.95,2.06-16.7-1.05h-0.01
				c2.57-8.96-3.93-15.12-3.93-15.12l0.94-3.66c-8.51,2.21-27.75,0.42-37.45-2.04c-5.66-1.44-8.26-3.41-9.44-4.8
				c-1.07,1.62-2.75,4.33-4.44,7.85c1.8-0.92,3.94-0.68,5.63,3.55c0,0-3.39-2.52-6.29-2.12c-2.47,5.48-4.78,12.6-5.05,20.42
				c0.46,0.04,0.95,0.1,1.46,0.19c3.88,0.67,7.32-1.49,7.32-1.49s-1.58,6.37-6.85,6.91c-0.6,0.07-1.21,0.11-1.8,0.12
				c1.12,16.48,8.38,27.5,21.23,34.26c1.07,0.31,2.17,0.55,3.3,0.72c26.42,4.09,35.1-10.46,46.08-7.91c2.18,0.5,4.11,1.73,5.81,3.35
				c4.92,4.7,7.92,12.8,9.23,17.07c1.49-0.46,2.89-1.33,4.17-2.4C560.82,188.22,553.36,180.63,558.72,174.27z M497.96,122.7
				c17.12-3.39,18.96,10.14,19.04,10.9C511.02,122.86,497.96,122.7,497.96,122.7z"/>
			<path style="fill:#6BBBC2;" d="M476.382,146.057c5.268-0.54,6.852-6.904,6.852-6.904s-3.445,2.161-7.329,1.486
				c-1.27-0.221-2.425-0.311-3.38-0.219c-1.967,0.191-3.075,1.168-2.503,3.461c0.329,1.316,1.268,1.927,2.494,2.173
				C473.645,146.28,475.016,146.197,476.382,146.057z"/>
			<path style="fill:#16213D;" d="M485.787,122.151c-2.798-7.022-6.874-3.05-8.512-0.994
				C480.252,118.029,485.787,122.151,485.787,122.151z"/>
			<path style="fill:#1B7D96;" d="M605.45,265.16c-0.98,7.62-1.73,12.59-3.04,16.45c-1.76,5.18-4.53,8.34-10.24,13.17
				c-2.07,1.75-5.97,2.27-10.93,1.93c-0.31-0.02-0.62-0.04-0.94-0.07c-1.33-0.11-2.74-0.28-4.2-0.51
				c-3.13-0.47-6.51-1.18-10.01-2.04c-0.61-0.16-1.22-0.31-1.83-0.47c-6.79-1.77-13.91-4.1-20.38-6.5
				c-0.71-0.26-1.42-0.52-2.11-0.78c-5.17-1.98-9.83-3.97-13.44-5.7c-0.25-0.12-0.51-0.24-0.75-0.37c-1.98-0.97-3.61-1.85-4.78-2.6
				c-0.43-0.27-0.8-0.53-1.1-0.76c-0.98-0.76-1.78-1.57-2.42-2.43l1.06,0.35c-5-6.34,2.38-14.3,3.5-18.09
				c1.11-3.78,32.59,2.77,36.39,0c3.8-2.76,6.41-42.85,11.1-68.38c4.6-25.04,25.29-17.73,26.08-17.44c0.01,0.01,0.02,0.01,0.02,0.01
				c1.19,0.44,1.89,0.79,1.89,0.79c6.03,1.89,9.31,8.82,10.86,18.19c0,0,0,0.01,0.01,0.03c0.19,1.16,0.36,2.36,0.49,3.59
				C613.41,217.26,607.01,253.01,605.45,265.16z"/>
			<path style="fill:#A3E2E2;" d="M564.17,191.07l1.7-1.16c-0.46,0.48-0.96,0.93-1.47,1.36
				C564.33,191.21,564.25,191.14,564.17,191.07z"/>
			<path style="fill:#A3E2E2;" d="M637.79,261.79c-2.73,56.95-7.54,72.63-7.54,72.63c-0.73-0.08-1.49-0.17-2.29-0.28
				c-0.4-0.05-0.81-0.11-1.23-0.18c-0.41-0.06-0.84-0.13-1.27-0.21c-0.43-0.07-0.86-0.15-1.31-0.23c-0.55-0.1-1.12-0.21-1.7-0.33
				c-1.35-0.26-2.76-0.56-4.2-0.89c-0.68-0.16-1.37-0.31-2.07-0.48c-1.39-0.32-2.8-0.67-4.24-1.04c-1.4-0.36-2.82-0.73-4.25-1.11
				c-10.1-2.71-20.51-5.97-27.57-8.27c27.51-7.14,28.84-11.28,32.99-18.53c5.2-9.1,3.57-15.24,3.57-15.24
				c2.3,1.28,5.62-4.88,5.62-4.88s1.79-10.69-7.15-3.29c-5.35,4.43-9.92,3.56-12.74,2.15c1.31-3.86,2.06-8.83,3.04-16.45
				c2.29-17.87,15.06-86.81-6.13-93.44c0,0-24.18-12.09-30.76,15.02c-0.76,1.02-1.66,2.14-2.69,3.17c0,0-9.15-9.24-5.64-13.31
				c3.51-4.07,19.34-17.99,19.34-17.99l1.42-1.72c1.92,0.5,6.07,1.85,9.65,4.87c4.85,4.08,4.85,4.08,4.85,4.08s6.26,1.55,14.07,8.02
				C609.56,173.86,640.51,204.84,637.79,261.79z"/>
			<path style="fill:none;stroke:#662D91;stroke-miterlimit:10;" d="M544.329,156.772c-0.175-0.022-0.345-0.056-0.499-0.12
				C543.83,156.652,544.008,156.697,544.329,156.772z"/>
			<path style="fill:#1B7D96;" d="M622.45,333.19c0,0-13.41,29.08-51.12,35.06c-37.71,5.98-115.18,18.77-115.18,18.77L345,409.3
				c0,0-0.22,0.08-0.63,0.2l-6.02-28.57l-0.32-1.51l-0.67-3.19c0,0,49.74-14.26,103.25-29.1c6.38-1.77,12.83-3.55,19.24-5.32
				c6.2-1.7,12.38-3.39,18.46-5.05c10.14-2.76,20.02-5.42,29.31-7.89c1.78,2.42,2.51,4.12,2.51,4.12
				c37.79,9.14,100.76-0.63,100.76-0.63s0,0,1.05-1.58c1.44,0.37,2.85,0.72,4.24,1.04c0.7,0.17,1.39,0.32,2.07,0.48
				C619.69,332.63,621.1,332.93,622.45,333.19z"/>
			<path style="fill:#90D1CF;" d="M532.596,245.628c13.012,0.706,21.231,5.151,25.626,8.457c5.256-9.577,4.768-43.091,10.204-66.794
				c0.043-0.187,0.09-0.365,0.134-0.548c-1.1,1.485-2.522,3.162-4.16,4.531c-1.276,1.066-2.682,1.94-4.166,2.393
				c-0.578,0.176-1.167,0.292-1.765,0.326c-6.83,0.383-8.936-2.872-8.936-2.872s-0.017,0.035-0.025,0.052
				c-0.098,0.204-0.774,1.624-1.821,3.948c-4.269,9.475-14.591,33.789-16.094,50.464
				C531.926,245.599,532.253,245.609,532.596,245.628z"/>
			<path style="fill:#6BBBC2;" d="M560.23,193.67c-0.57,0.17-1.16,0.29-1.76,0.32c-6.83,0.39-8.94-2.87-8.94-2.87
				s-0.02,0.04-0.02,0.05c-0.01-0.02-0.01-0.04-0.02-0.06c-0.04-0.18-0.09-0.35-0.14-0.52c0,0,0-0.01-0.01-0.02
				c-0.42-1.2-1.54-4.13-3.13-6.38c-1.87-2.65,4.34-6.38,5.38-6.98C556.17,181.97,558.98,189.58,560.23,193.67z"/>
			<path style="fill:#1B7D96;" d="M547.69,195.12c-4.27,9.48-14.6,33.79-16.1,50.46c-3.07-0.13-5.78-0.08-8.15,0.1
				c0,0,5.02-20.06,11.63-32.72c6.16-11.82,9.91-16.49,12.16-17.64c0.01-0.01,0.02-0.01,0.03-0.02
				C547.41,195.23,547.55,195.17,547.69,195.12z"/>
			<path style="fill:#BCECED;" d="M521.7,255.46c-3.25,4.01-6.06,10.59-3.96,16.22c-5.58,1.57-10.46-2.32-12.73-4.59
				c-0.69-0.7-1.14-1.24-1.29-1.43l-0.05-0.05c-0.01-0.01-0.01-0.02-0.01-0.02s-3-0.26-4.1-1.35c-0.15-0.16-0.27-0.33-0.33-0.52
				c-0.08-0.26-0.13-0.67-0.13-1.18c0-0.84,0.12-1.96,0.34-3.15c0.45-2.44,1.36-5.16,2.69-6.4c0.78-0.73,1.87-1.03,3.08-1.14
				c2.06-0.18,4.49,0.18,6.5-0.03c0.4-0.04,0.78-0.09,1.14-0.19c2.23-0.58,6.64,1.9,9.17,3.5
				C521.91,255.24,521.8,255.34,521.7,255.46z"/>
			<path style="fill:#FFFFFF;" d="M528.95,316.53c-17.77,4.09-39.93-16.34-62.91-20.53c-13.37-2.44-15.8-6.44-15.5-9.36
				c0.47-1.13,1.08-2.35,1.83-3.62c0,0,0-0.01,0.01-0.02h0.01c5.69-9.66,19.28-22.25,37.52-23.83c3.05-0.27,6.24-0.2,9.53,0.22
				c-0.22,1.19-0.34,2.31-0.34,3.15c0,0.51,0.05,0.92,0.13,1.18c0.06,0.19,0.18,0.36,0.33,0.52c1.1,1.09,4.1,1.35,4.1,1.35
				s0,0.01,0.01,0.02l0.05,0.05c0.15,0.19,0.6,0.73,1.29,1.43c2.27,2.27,7.15,6.16,12.73,4.59c0.7,1.9,1.97,3.69,3.96,5.23
				c0.3,0.23,0.67,0.49,1.1,0.76c1.25,1.81,2.61,3.66,4.01,5.33c5.1,6.09,28.59,14.13,33.42,19.74
				C565.06,308.36,546.72,312.45,528.95,316.53z"/>
			<path style="fill:#60A7AD;" d="M511.713,251.825c-0.799-0.476-1.812-1.107-2.732-1.757c-0.594-0.42-1.148-0.847-1.577-1.245
				c-1.787-1.66-3.875,0.954-2.193,3.03C507.271,251.666,509.703,252.029,511.713,251.825z"/>
			<path style="fill:#6BBBC2;" d="M440.29,346.37h3.05c-0.91,0.26-1.82,0.51-2.73,0.76C440.51,346.89,440.4,346.63,440.29,346.37z"
				/>
			<path style="fill:#16213D;" d="M497.957,122.695c0,0,13.089,0.167,19.055,10.934C517.013,133.63,515.574,119.206,497.957,122.695
				z"/>
			<path style="fill:#BCECED;" d="M344.37,409.5c-3.61,1.13-22.06,6.3-31.46-2.59c-10.43-9.86-31.15-13.65-31.87-26.72
				c0-0.01,0-0.01,0-0.02c0.82-6,3.73-11.09,3.73-11.09c-0.03-0.05-0.05-0.1-0.07-0.15c-0.11-0.27-0.36-0.89-0.62-1.75
				c-0.18-0.58-0.36-1.27-0.51-2.06c-0.42-4.15,1.81-7.56,2.98-9.52c1.54-2.56,36.77,24.25,41.15,25.78c4.39,1.53,9.66,0,9.66,0
				l0.99-0.45L344.37,409.5z"/>
			<path style="fill:#D9F8F9;" d="M622.3,282.75c0,0-3.32,6.16-5.62,4.88c0,0,1.63,6.14-3.57,15.24
				c-4.15,7.25-5.48,11.39-32.99,18.53c-4.11,1.07-8.79,2.2-14.16,3.42c-31.07,7.07-55.83,8.17-55.83,8.17s-0.73-1.7-2.51-4.12
				c-2.67-3.62-7.72-8.86-16.3-12.39c-14.3-5.87-41.11-15.57-41.87-24.76c-0.11-1.32,0.27-3.07,1.09-5.08
				c-0.3,2.92,2.13,6.92,15.5,9.36c22.98,4.19,45.14,24.62,62.91,20.53c17.77-4.08,36.11-8.17,31.28-13.79
				c-4.83-5.61-28.32-13.65-33.42-19.74c-1.4-1.67-2.76-3.52-4.01-5.33c1.17,0.75,2.8,1.63,4.78,2.6c0.24,0.12,0.49,0.24,0.75,0.37
				c3.61,1.73,8.27,3.72,13.44,5.7c0.7,0.26,1.4,0.52,2.11,0.78c6.47,2.4,13.59,4.73,20.38,6.5c0.61,0.16,1.23,0.32,1.83,0.47
				c3.5,0.86,6.88,1.57,10.01,2.04c1.46,0.23,2.87,0.4,4.2,0.51c0.32,0.03,0.63,0.05,0.94,0.07c4.96,0.34,8.86-0.18,10.93-1.93
				c5.71-4.83,8.48-7.99,10.24-13.17c2.45,1.23,6.23,2.04,10.69-0.68l0.02-0.01c0.66-0.4,1.34-0.89,2.03-1.46
				c2.88-2.38,4.64-2.89,5.71-2.48c0,0,0.05,0.02,0.14,0.07c0.06,0.03,0.14,0.07,0.23,0.13c0.02,0.01,0.05,0.03,0.08,0.05
				C623.01,278.53,622.3,282.75,622.3,282.75z"/>
			<path style="fill:#FFFFFF;" d="M514.55,69.33c-13.27-13.78-26.55-10.72-39.06,5.88c-1.93,2.56-3.06,5.13-3.6,7.64
				c-1.83,8.57,3.28,16.47,7.41,21.21c-0.31-0.51-5.36-9.19-4.87-17.74c0.25-4.57,2.1-9.11,7.1-12.34
				c14.64-9.45,18.57-13.25,30.18-5.87c11.61,7.37,8.82,8.65,18.59,9.4C524.77,76.56,519.42,74.39,514.55,69.33z"/>
			<path style="fill:#FFFFFF;" d="M484.6,110.75c-1.07,1.62-2.75,4.33-4.44,7.85c-1.19,0.62-2.23,1.74-2.88,2.56
				c-0.24,0.24-0.45,0.52-0.65,0.86c1.74-4.42,4.06-8.77,7-12.95C483.64,109.13,483.78,109.8,484.6,110.75z"/>
			<path style="fill:#FFFFFF;" d="M479.5,120.03c-2.47,5.48-4.78,12.6-5.05,20.42c-0.7-0.07-1.35-0.08-1.92-0.03
				c0.14-2.73,0.49-5.5,1.06-8.28c0.68-3.35,1.68-6.72,3-10.05c0,0,0-0.01,0.01-0.01c0,0,0-0.01,0.01-0.01
				c0.01-0.02,0.02-0.03,0.02-0.05c0.12-0.16,0.34-0.48,0.65-0.86C477.93,120.48,478.69,120.14,479.5,120.03z"/>
			<path style="fill:#162C44;" d="M477.28,121.16c-0.31,0.38-0.53,0.7-0.65,0.86C476.83,121.68,477.04,121.4,477.28,121.16z"/>
			<path style="fill:#162C44;" d="M479.5,120.03c-0.81,0.11-1.57,0.45-2.22,1.13c0.65-0.82,1.69-1.94,2.88-2.56
				C479.95,119.06,479.72,119.54,479.5,120.03z"/>
			<path style="fill:#FFFFFF;" d="M495.81,180.44c-13.85-3.86-22.45-17.82-23.29-34.39c0.63,0.13,1.33,0.16,2.06,0.13
				C475.7,162.66,482.96,173.68,495.81,180.44z"/>
			<path style="fill:#FFFFFF;" d="M560.23,176.6c-3.51,4.07,5.64,13.31,5.64,13.31l-1.7,1.16c-3.65-3.16-10.7-10.57-5.45-16.8
				c3.3-3.91,8.3-8.11,12.61-11.43c4.7-3.62,8.58-6.19,8.58-6.19s0.4,0.07,1.08,0.24l-1.42,1.72
				C579.57,158.61,563.74,172.53,560.23,176.6z"/>
			<path style="fill:#FFFFFF;" d="M546.21,184.19c1.59,2.25,2.71,5.18,3.13,6.38c-0.93-2.79-2.94-2.97-3.81-6.34
				c-0.73-2.82,2.71-5.77,5.47-7.63c0.21,0.2,0.41,0.4,0.59,0.61C550.55,177.81,544.34,181.54,546.21,184.19z"/>
			<path style="fill:#1B7D96;" d="M449.45,291.72c0.5,6.07,12.35,12.35,24.46,17.61l4.4,27.43c-6.08,1.66-12.26,3.35-18.46,5.05
				c-5.5,1.52-11.03,3.04-16.51,4.56h-0.51c-1.16-2.67-3.96-9.03-4.36-9.51c-0.51-0.61-25.53-57.09-8.43-76.24
				c16.89-18.91,58.79-1.89,59.85-1.46c0.01,0.01,0.02,0.01,0.02,0.01c-2.53,0.22-4.96,0.65-7.3,1.26
				C461.92,265.76,448.87,284.75,449.45,291.72z"/>
			<path style="fill:#FFFFFF;" d="M597.41,170.92c-0.79-0.29-21.48-7.6-26.08,17.44c-4.69,25.53-7.3,65.62-11.1,68.38
				c-3.8,2.77-35.28-3.78-36.39,0c-1.12,3.79-8.5,11.75-3.5,18.09l-1.06-0.35c-4.59-6.09-1.38-14.32,2.42-19.02
				c0.1-0.12,0.21-0.22,0.32-0.33c4.9-4.72,24.13,1.86,32.87,1.61c1.33-0.04,2.42-0.99,3.33-2.66c5.26-9.57,4.77-43.09,10.21-66.79
				c0.04-0.19,0.09-0.36,0.13-0.55C574.02,164.26,591.57,168.73,597.41,170.92z"/>
			<path style="fill:#FFFFFF;" d="M547.23,195.32c-2.25,1.15-6,5.82-12.16,17.64c-6.61,12.66-11.63,32.72-11.63,32.72l-0.99,0.08
				c1.89-7.89,8.47-32.47,20.36-46.89C544.36,196.99,545.87,195.91,547.23,195.32z"/>
			<path style="fill:#FFFFFF;" d="M534.318,245.747c0,0,7.936-37.301,15.192-54.577c0,0-17.394,37.926-17.92,54.41L534.318,245.747z
				"/>
			<path style="fill:#FFFFFF;" d="M338.035,379.424l84.373-20.509c0,0,8.401,10.553,25.422,13.617c0,0-23.83-14.833-9.532-19.672
				c14.298-4.839,71.832-19.87,71.832-19.87l-2.51-4.12l-170.258,47.357L338.035,379.424z"/>
			<path style="fill:#FFFFFF;" d="M338.35,380.93l-0.99,0.45c0,0-5.27,1.53-9.66,0c-4.38-1.53-39.61-28.34-41.15-25.78
				c-1.17,1.96-3.4,5.37-2.98,9.52c-0.57-2.88-0.76-6.94,1.2-10.85c0.01-0.02,0.02-0.04,0.03-0.06c0.09-0.16,0.2-0.31,0.31-0.44
				c0.03-0.05,0.07-0.09,0.1-0.13c0.13-0.13,0.27-0.25,0.42-0.34c0.04-0.03,0.09-0.05,0.13-0.08c0.16-0.09,0.34-0.17,0.53-0.22
				c0.01-0.01,0.03-0.01,0.04-0.02c0.2-0.05,0.41-0.08,0.63-0.1c0.05,0,0.09-0.01,0.14-0.01c0.22-0.02,0.47-0.01,0.72,0.01
				c0.04,0,0.09,0.01,0.14,0.01c0.54,0.06,1.13,0.19,1.77,0.38c0.04,0.01,0.08,0.03,0.12,0.04c0.32,0.1,0.65,0.21,0.98,0.34
				c0.05,0.02,0.09,0.04,0.13,0.05c0.71,0.28,1.45,0.62,2.23,1.01c0.04,0.01,0.08,0.03,0.12,0.05c0.38,0.2,0.77,0.4,1.17,0.62
				c0.05,0.03,0.1,0.05,0.15,0.08c0.81,0.45,1.65,0.94,2.5,1.46c0.06,0.04,0.12,0.08,0.18,0.11c0.41,0.26,0.82,0.52,1.24,0.78
				c0.08,0.06,0.17,0.11,0.25,0.17c0.42,0.27,0.83,0.54,1.25,0.82c0.06,0.04,0.13,0.09,0.19,0.13c0.36,0.24,0.72,0.48,1.08,0.73
				c0.13,0.09,0.26,0.18,0.39,0.27c0.36,0.25,0.73,0.51,1.1,0.77c0.18,0.13,0.37,0.26,0.55,0.39c0.24,0.17,0.47,0.34,0.71,0.51
				c0.35,0.26,0.7,0.51,1.05,0.76c0.12,0.09,0.25,0.19,0.37,0.28c6.64,4.87,13.23,10.31,17.06,13.08c6.26,4.52,12.28,4.3,15.48,3.7
				L338.35,380.93z"/>
			<path style="fill:#FFFFFF;" d="M284.7,368.93c-0.4-0.78-0.68-1.54-0.86-2.28c0.08,0.18,0.16,0.36,0.24,0.53
				c1.08,2.44,1.53,3.52,0.69,1.9C284.74,369.03,284.72,368.98,284.7,368.93z"/>
			<polygon style="fill:#FFFFFF;" points="338.52,380.85 338.35,380.93 338.03,379.42 			"/>
			<path style="fill:#FFFFFF;" d="M430.04,260.62c-17.1,19.15,7.92,75.63,8.43,76.24c0.4,0.48,3.2,6.84,4.36,9.51h-2.54
				c-0.46-1.07-0.97-2.3-1.52-3.67c-8.91-21.98-29.47-79.75-4.22-90.05c24.34-9.92,46.62,1.1,55.34,6.51
				C488.83,258.73,446.93,241.71,430.04,260.62z"/>
			<path style="fill:#90D1CF;" d="M616,250.24c-0.34,17.1-2.9,30.69-2.9,30.69c-4.46,2.72-8.24,1.91-10.69,0.68
				c1.31-3.86,2.06-8.83,3.04-16.45c1.56-12.15,7.96-47.9,5.23-71.63C612.14,204.28,616.28,236.14,616,250.24z"/>
			<path style="fill:#6BBBC2;" d="M611.94,330.78c-1.05,1.58-1.05,1.58-1.05,1.58s-62.97,9.77-100.76,0.63c0,0,24.76-1.1,55.83-8.17
				c5.37-1.22,10.05-2.35,14.16-3.42c7.06,2.3,17.47,5.56,27.57,8.27C609.12,330.05,610.54,330.42,611.94,330.78z"/>
			<path style="fill:#90D1CF;" d="M622.45,307.82c0,0-3.39,12.18-7.47,18.36c-1.49,2.26-2.44,3.69-3.04,4.6
				c-1.4-0.36-2.82-0.73-4.25-1.11c-10.1-2.71-20.51-5.97-27.57-8.27c27.51-7.14,28.84-11.28,32.99-18.53
				c5.2-9.1,3.57-15.24,3.57-15.24c2.3,1.28,5.62-4.88,5.62-4.88s0.71-4.22-0.99-5.52c1.34,0.77,5.27,3.49,5.87,8.83
				C627.91,292.53,622.45,307.82,622.45,307.82z"/>
			<path style="fill:#6BBBC2;" d="M345,412.49c-3.59,0.65-12.39,2.43-15.81,4.84c-4.34,3.07-12.25,0.51-16.34-6.12
				c-4.08-6.64-17.87-8.69-27.57-17.37c-4.24-3.79-4.87-8.99-4.24-13.65c0.72,13.07,21.44,16.86,31.87,26.72
				c9.4,8.89,27.85,3.72,31.46,2.59L345,412.49z"/>
			<path style="fill:#156477;" d="M630.25,334.42c-2.44,9.35-9.43,26.93-28.38,35.68c-26.55,12.25-130.37,21.96-130.37,21.96
				l-125.97,22.98l-0.53-2.55l-0.63-2.99c0.41-0.12,0.63-0.2,0.63-0.2l111.15-22.28c0,0,77.47-12.79,115.18-18.77
				c37.71-5.98,51.12-35.06,51.12-35.06c0.58,0.12,1.15,0.23,1.7,0.33c0.45,0.08,0.88,0.16,1.31,0.23c0.43,0.08,0.86,0.15,1.27,0.21
				c0.42,0.07,0.83,0.13,1.23,0.18C628.76,334.26,629.52,334.35,630.25,334.42z"/>
			<path style="fill:#162C44;" d="M622.45,333.19l7.8,1.23c-0.73-0.07-1.49-0.16-2.29-0.28c-0.4-0.05-0.81-0.11-1.23-0.18
				c-0.41-0.06-0.84-0.13-1.27-0.21c-0.43-0.07-0.86-0.15-1.31-0.23C623.6,333.42,623.03,333.31,622.45,333.19z"/>
			<path style="fill:#1B7D96;" d="M639.84,326.4c-0.47,3.29-0.98,5.6-1.46,6.68c-0.66,1.47-3.69,1.78-8.13,1.34
				c0,0,4.81-15.68,7.54-72.63c2.72-56.95-28.23-87.93-28.23-87.93h0.01c5.66,4.69,12.13,11.96,17.61,23.1
				c2.67,5.43,5.12,11.76,7.12,19.18C644.34,253.47,642.62,307.02,639.84,326.4z"/>
			<path style="fill:#156477;" d="M449.45,291.72c0,0-4.332,1.401-10.21,0c-5.878-1.401,14.452,52.15,14.452,52.15l24.618-7.11
				l-4.4-27.43C473.91,309.33,450.043,299.936,449.45,291.72z"/>
			<g>
				<g>
					<path style="fill:#53A7A9;" d="M504.511,129c-0.295,1.287-0.644,2.554-1.027,3.809c-0.387,1.253-0.795,2.498-1.24,3.73
						l-0.325-0.638c1.663,0.433,3.307,0.935,4.945,1.454c0.815,0.273,1.631,0.546,2.44,0.843c0.806,0.309,1.615,0.605,2.409,0.954
						c-0.86-0.115-1.705-0.282-2.554-0.437c-0.846-0.166-1.684-0.358-2.523-0.548c-1.67-0.408-3.335-0.834-4.981-1.329l-0.509-0.153
						l0.183-0.485c0.463-1.225,0.963-2.436,1.483-3.64C503.339,131.359,503.898,130.17,504.511,129z"/>
				</g>
				<path style="fill:#244963;" d="M506.75,137.761c0,0-1.483,4.799,0.735,4.912c2.217,0.114,2.6-3.521,2.6-3.521L506.75,137.761z"
					/>
			</g>
			<g>
				<g>
					<path style="fill:#53A7A9;" d="M479.659,125.154c-0.221,1.085-0.495,2.151-0.803,3.204c-0.313,1.051-0.646,2.095-1.017,3.125
						l-0.325-0.638c1.392,0.357,2.764,0.783,4.131,1.226c0.68,0.236,1.36,0.47,2.033,0.729c0.67,0.271,1.343,0.529,2.002,0.84
						c-0.724-0.077-1.434-0.206-2.147-0.323c-0.71-0.128-1.413-0.282-2.116-0.434c-1.398-0.332-2.792-0.682-4.167-1.1l-0.509-0.155
						l0.183-0.483c0.389-1.023,0.814-2.033,1.26-3.035C478.636,127.11,479.121,126.122,479.659,125.154z"/>
				</g>
				<path style="fill:#244963;" d="M481.531,132.477c0,0-1.239,4.011,0.614,4.107c1.853,0.095,2.174-2.943,2.174-2.943
					L481.531,132.477z"/>
			</g>
			<g>
				<path style="fill:#53A7A9;" d="M509.671,147.395c-3.01,0-5.794-1.752-5.94-1.846l0.538-0.843
					c0.041,0.026,4.148,2.602,7.408,1.334l0.363,0.932C511.264,147.274,510.459,147.395,509.671,147.395z"/>
			</g>
			<g>
				<path style="fill:#53A7A9;" d="M480.3,138.887c-1.659,0-3.126-0.624-3.223-0.666l0.34-0.784
					c0.033,0.014,3.348,1.418,5.288-0.151l0.537,0.664C482.363,138.661,481.296,138.887,480.3,138.887z"/>
			</g>
			<g>
				<path style="fill:#53A7A9;" d="M514.061,171.57c-0.262,0-0.522-0.102-0.719-0.305c-9.602-9.93-19.187-6.506-19.591-6.354
					c-0.514,0.191-1.092-0.067-1.287-0.584c-0.194-0.516,0.065-1.091,0.579-1.287c0.454-0.171,11.187-4.076,21.736,6.835
					c0.384,0.398,0.373,1.03-0.023,1.414C514.563,171.477,514.311,171.57,514.061,171.57z"/>
			</g>
		</g>
		<g>
			<g>
				<polygon style="fill:#90D1CF;" points="750,414.924 749.78,499.608 482.03,499.608 414.25,459.047 379.46,438.234 
					749.72,403.234 				"/>
				<polygon style="fill:#244963;" points="379.46,438.234 379.46,499.608 593.933,499.608 				"/>
			</g>
			<path style="fill:#FFFFFF;" d="M749.72,408.628c0,0-46.081,21.651-112.041,23.065c-65.959,1.414-136.895,7.404-120.959,19.728
				c15.936,12.324,77.213,48.187,77.213,48.187L379.46,438.234l370.26-35V408.628z"/>
			<path style="fill:#202F51;" d="M593.933,499.608c0,0-172.199-37.395-180.823-28.203c-8.624,9.191,6.184,28.596,6.184,28.596
				H379.46v-61.766L593.933,499.608z"/>
		</g>
		<g>
			<path style="fill:#1B7D96;" d="M580.437,452.347c-4.474-4.348-37.481-14.714-37.481-14.714s-60.046,4.054-56.378,8.499
				c3.668,4.445,33.946,17.155,48.715,19.658c4.719,0.8,11.351,0.024,18.089-1.499c1.825,1.516,5.286,4.026,8.441,4.269
				c4.548,0.35,13.228-4.37,14.996-6.668c1.092-1.419-2.313-2.678-5.077-3.435C577.764,455.923,581.587,453.465,580.437,452.347z"/>
			<g>
				<g>
					<rect x="497.127" y="351.503" style="fill:#FFFFFF;" width="38.027" height="9.381"/>
					<path style="fill:#FFFFFF;" d="M549.899,439.82c0,0.355-0.028,0.7-0.061,1.044c0,0.017,0.005,0.033,0.005,0.045
						c0,7.442-15.089,13.474-33.7,13.474c-18.616,0-33.7-6.031-33.7-13.474v-0.045c-0.033-0.344-0.061-0.689-0.061-1.044v-70.977
						c0-6.448,5.276-11.719,11.719-11.719h44.08c6.448,0,11.719,5.27,11.719,11.719V439.82z"/>
					<path style="fill:#D9F8F9;" d="M549.899,439.82c0,0.355-0.028,0.7-0.061,1.044c0,0.017,0.005,0.033,0.005,0.045
						c0,7.442-15.089,13.474-33.7,13.474c-18.616,0-33.7-6.031-33.7-13.474v-0.045c-0.033-0.344-0.061-0.689-0.061-1.044v-6.104
						c1.255,2.283,2.694,4.276,4.854,4.799c9.164,2.221,30.746,1.91,39.243-2.183c17.911-8.625,21.707-67.651,8.675-75.476
						c-3.062-1.839-7.453-2.783-12.813-3.732c-6.548-1.167-14.829-1.816-25.214-1.666v-3.954h38.027v5.621h3.027
						c6.448,0,11.719,5.27,11.719,11.719V439.82z"/>
					<g>
						<path style="fill:#1B7D96;" d="M538.059,327.564h-43.836c-2.064,0-3.736,1.673-3.736,3.736v18.804
							c0,2.063,1.673,3.736,3.736,3.736h43.836c2.063,0,3.736-1.673,3.736-3.736V331.3
							C541.796,329.237,540.123,327.564,538.059,327.564z"/>
						<g>
							<g>
								<path style="fill:#17223E;" d="M494.504,351.823L494.504,351.823c-0.882,0-1.604-0.722-1.604-1.604v-19.035
									c0-0.882,0.722-1.604,1.604-1.604l0,0c0.882,0,1.604,0.721,1.604,1.604v19.035
									C496.108,351.102,495.386,351.823,494.504,351.823z"/>
								<path style="fill:#17223E;" d="M499.914,351.823L499.914,351.823c-0.882,0-1.604-0.722-1.604-1.604v-19.035
									c0-0.882,0.722-1.604,1.604-1.604l0,0c0.882,0,1.603,0.721,1.603,1.604v19.035
									C501.517,351.102,500.796,351.823,499.914,351.823z"/>
								<path style="fill:#17223E;" d="M505.323,351.823L505.323,351.823c-0.882,0-1.604-0.722-1.604-1.604v-19.035
									c0-0.882,0.722-1.604,1.604-1.604l0,0c0.882,0,1.603,0.721,1.603,1.604v19.035
									C506.926,351.102,506.205,351.823,505.323,351.823z"/>
								<path style="fill:#17223E;" d="M510.732,351.823L510.732,351.823c-0.882,0-1.604-0.722-1.604-1.604v-19.035
									c0-0.882,0.722-1.604,1.604-1.604l0,0c0.882,0,1.604,0.721,1.604,1.604v19.035
									C512.336,351.102,511.614,351.823,510.732,351.823z"/>
								<path style="fill:#17223E;" d="M516.141,351.823L516.141,351.823c-0.882,0-1.604-0.722-1.604-1.604v-19.035
									c0-0.882,0.722-1.604,1.604-1.604l0,0c0.883,0,1.604,0.721,1.604,1.604v19.035
									C517.745,351.102,517.023,351.823,516.141,351.823z"/>
								<path style="fill:#17223E;" d="M521.55,351.823L521.55,351.823c-0.882,0-1.603-0.722-1.603-1.604v-19.035
									c0-0.882,0.721-1.604,1.603-1.604l0,0c0.882,0,1.604,0.721,1.604,1.604v19.035
									C523.154,351.102,522.432,351.823,521.55,351.823z"/>
								<path style="fill:#17223E;" d="M528.563,342.124v8.096c0,0.882-0.722,1.604-1.604,1.604l0,0
									c-0.882,0-1.604-0.722-1.604-1.604v-19.035c0-0.882,0.722-1.604,1.604-1.604l0,0c0.882,0,1.604,0.721,1.604,1.604V342.124"
									/>
								<path style="fill:#17223E;" d="M532.369,351.823L532.369,351.823c-0.882,0-1.604-0.722-1.604-1.604v-19.035
									c0-0.882,0.721-1.604,1.604-1.604l0,0c0.882,0,1.604,0.721,1.604,1.604v19.035
									C533.972,351.102,533.251,351.823,532.369,351.823z"/>
								<path style="fill:#17223E;" d="M537.778,351.823L537.778,351.823c-0.882,0-1.604-0.722-1.604-1.604v-19.035
									c0-0.882,0.722-1.604,1.604-1.604l0,0c0.882,0,1.604,0.721,1.604,1.604v19.035
									C539.382,351.102,538.66,351.823,537.778,351.823z"/>
							</g>
						</g>
					</g>
					<rect x="488.344" y="385.461" style="fill:#90D1CF;" width="55.594" height="40.584"/>
				</g>
				<path style="fill:#FFFFFF;" d="M513.436,403.855c0-6.358,4.894-11.565,11.12-12.079c-2.121-1.278-4.605-2.013-7.261-2.013
					c-7.783,0-14.093,6.31-14.093,14.093c0,7.783,6.31,14.093,14.093,14.093c2.656,0,5.14-0.736,7.261-2.013
					C518.33,415.42,513.436,410.213,513.436,403.855z"/>
			</g>
		</g>
		<g>
			<polygon style="fill:#1B7D96;" points="727.234,456.957 750.36,457.487 750.775,471.255 720.691,463.154 			"/>
			<polygon style="fill:#1B7D96;" points="607.48,460.646 737.692,499.411 691.114,499.804 598.242,461.158 			"/>
			<g>
				<g>
					<path style="fill:#17223E;" d="M598.242,461.158L598.242,461.158c-2.682-2.4-2.912-6.557-0.512-9.238l34.278-38.301
						c2.4-2.681,6.557-2.912,9.238-0.512l0,0c2.681,2.4,2.912,6.557,0.512,9.238l-34.278,38.301
						C605.08,463.327,600.923,463.557,598.242,461.158z"/>
					<path style="fill:#968D7A;" d="M712.613,430.163l-13.497-15.253c-2.384-2.695-6.54-2.949-9.235-0.564l0,0
						c-2.695,2.385-2.949,6.54-0.565,9.235l12.918,14.599C705.712,435.532,709.214,432.925,712.613,430.163z"/>
					<g>
						<path style="fill:#1B7D96;" d="M667.418,331.559l-16.076-0.046l-0.348,123.42l16.076,0.045
							c34.081,0.096,61.788-27.454,61.884-61.536C729.05,359.361,701.499,331.654,667.418,331.559z"/>
						<path style="fill:#D9F8F9;" d="M711.949,393.395c0.096-34.082-27.455-61.788-61.536-61.884
							c-34.082-0.096-61.788,27.455-61.884,61.536c-0.096,34.082,27.455,61.788,61.536,61.884
							C684.146,455.027,711.853,427.476,711.949,393.395z"/>
					</g>
					<path style="fill:#244963;" d="M699.438,393.359c0.077-27.489-22.144-49.836-49.633-49.913
						c-27.489-0.078-49.836,22.144-49.913,49.633c-0.078,27.489,22.144,49.836,49.633,49.914
						C677.014,443.07,699.36,420.849,699.438,393.359z"/>
					<path style="fill:#FFFFFF;" d="M649.533,440.213c-25.912-0.073-46.935-21.214-46.862-47.126
						c0.073-25.913,21.214-46.934,47.126-46.861c25.913,0.073,46.935,21.214,46.861,47.126
						C696.586,419.264,675.445,440.286,649.533,440.213z"/>
					<g>
						<g>
							<path style="fill:#1B7D96;" d="M652.377,351.087c0.004-1.432-1.154-2.597-2.586-2.601c-1.432-0.004-2.597,1.154-2.601,2.586
								c-0.004,1.432,1.154,2.597,2.587,2.601C651.209,353.677,652.373,352.519,652.377,351.087z"/>
							<path style="fill:#1B7D96;" d="M652.14,435.366c0.004-1.433-1.154-2.597-2.586-2.601c-1.432-0.004-2.597,1.154-2.601,2.586
								c-0.004,1.433,1.154,2.597,2.586,2.601C650.971,437.957,652.136,436.799,652.14,435.366z"/>
						</g>
					</g>
					<g>
						<g>
							<path style="fill:#1B7D96;" d="M691.797,395.931c1.432,0.004,2.597-1.154,2.601-2.586c0.004-1.432-1.154-2.597-2.586-2.601
								c-1.432-0.004-2.597,1.154-2.601,2.586C689.207,394.763,690.365,395.928,691.797,395.931z"/>
							<path style="fill:#1B7D96;" d="M607.518,395.694c1.432,0.004,2.596-1.154,2.601-2.587c0.004-1.432-1.154-2.597-2.586-2.601
								c-1.432-0.004-2.597,1.154-2.601,2.586C604.927,394.526,606.085,395.69,607.518,395.694z"/>
						</g>
					</g>
					<g>
						<g>
							<path style="fill:#1B7D96;" d="M677.539,424.929c1.01,1.016,2.652,1.02,3.668,0.01c1.016-1.01,1.02-2.652,0.01-3.668
								c-1.01-1.015-2.652-1.02-3.668-0.01C676.534,422.271,676.529,423.914,677.539,424.929z"/>
							<path style="fill:#1B7D96;" d="M618.113,365.167c1.01,1.016,2.652,1.021,3.668,0.01c1.016-1.01,1.02-2.652,0.01-3.668
								c-1.01-1.015-2.652-1.02-3.668-0.01C617.107,362.509,617.103,364.151,618.113,365.167z"/>
						</g>
					</g>
					<g>
						<g>
							<path style="fill:#1B7D96;" d="M617.955,421.093c-1.016,1.01-1.021,2.652-0.01,3.668c1.01,1.015,2.652,1.02,3.668,0.01
								c1.016-1.01,1.021-2.652,0.01-3.668C620.613,420.088,618.97,420.083,617.955,421.093z"/>
							<path style="fill:#1B7D96;" d="M677.717,361.667c-1.016,1.01-1.02,2.652-0.01,3.668c1.01,1.016,2.652,1.02,3.668,0.01
								c1.016-1.01,1.02-2.652,0.01-3.668C680.375,360.661,678.733,360.657,677.717,361.667z"/>
						</g>
					</g>
					<path style="fill:#17223E;" d="M727.249,452.284l-19.137-21.627c-0.567,2.995-4.634,7.982-8.19,10.49l17.527,19.808
						c2.384,2.695,6.54,2.948,9.235,0.564l0,0C729.379,459.135,729.634,454.979,727.249,452.284z"/>
					<polygon style="fill:#1B7D96;" points="654.067,392.286 649.122,433.488 645.268,392.297 					"/>
					<polygon style="fill:#1B7D96;" points="652.885,388.742 680.956,394.273 650.994,395.83 					"/>
					<path style="fill:#17223E;" d="M654.517,393.233c0.007-2.68-2.159-4.858-4.838-4.866c-2.68-0.008-4.858,2.159-4.865,4.838
						c-0.007,2.68,2.158,4.858,4.838,4.865C652.331,398.079,654.509,395.913,654.517,393.233z"/>
				</g>
				<path style="fill:#D9F9F9;" d="M641.44,319.999c-0.07-0.14-0.208-0.415-0.208-0.415c-9.163-17.408-29.954-23.745-46.8-14.123
					c-16.846,9.622-23.446,31.603-14.967,49.401c0,0,0.138,0.275,0.208,0.416c1.283,2.56,16.15-3.262,33.206-13.004
					C629.936,332.531,642.723,322.559,641.44,319.999z"/>
				<path style="fill:#6BBBC2;" d="M641.44,319.999c-0.07-0.14-0.208-0.415-0.208-0.415c-5.161-9.804-14.01-16.096-23.766-18.004
					c0.605,0.828,1.068,1.793,1.321,2.946c2.202,9.665,0.688,19.32-6.022,27.475c-9.014,10.544-21.402,18.065-34.75,19.374
					c0.422,1.176,0.904,2.34,1.449,3.487c0,0,0.138,0.275,0.208,0.416c1.283,2.56,16.15-3.262,33.206-13.004
					C629.936,332.531,642.723,322.559,641.44,319.999z"/>
				<path style="fill:#FFFFFF;" d="M593.715,328.72c-3.676,7.141-9.524,11.454-13.063,9.632c-3.539-1.821-3.428-9.088,0.247-16.229
					c3.676-7.141,9.525-11.453,13.063-9.631C597.502,314.313,597.391,321.578,593.715,328.72z"/>
				<path style="fill:#FFBD22;" d="M720.058,308.749c-16.792-9.716-37.618-3.496-46.88,13.859c0,0-0.139,0.275-0.21,0.414
					c-1.297,2.552,11.433,12.597,28.435,22.435c17.001,9.838,31.835,15.744,33.132,13.191c0.071-0.139,0.21-0.414,0.21-0.414
					C743.325,340.485,736.85,318.466,720.058,308.749z"/>
				<path style="fill:#CDFBFC;" d="M720.058,308.749c-16.792-9.716-37.618-3.496-46.88,13.859c0,0-0.139,0.275-0.21,0.414
					c-1.297,2.552,11.433,12.597,28.435,22.435c17.001,9.838,31.835,15.744,33.132,13.191c0.071-0.139,0.21-0.414,0.21-0.414
					C743.325,340.485,736.85,318.466,720.058,308.749z"/>
				<path style="fill:#6BBBC2;" d="M674.84,319.812c-0.587,0.899-1.145,1.827-1.662,2.797c0,0-0.139,0.275-0.21,0.414
					c-1.297,2.552,11.433,12.597,28.435,22.435c17.001,9.838,31.835,15.744,33.132,13.191c0.071-0.139,0.21-0.414,0.21-0.414
					c4.424-9.152,4.836-19.437,1.904-28.587C716.615,338.471,691.13,334.614,674.84,319.812z"/>
				<path style="fill:#FFFFFF;" d="M699.17,307.977c8.013-0.545,14.728,2.233,14.998,6.204c0.27,3.971-6.007,7.632-14.02,8.177
					c-8.013,0.545-14.727-2.233-14.998-6.204C684.88,312.182,691.156,308.522,699.17,307.977z"/>
			</g>
		</g>
	</g>
</g>
</svg>
